<?xml version="1.0" encoding="utf-8"?>
<!-- Generator: Adobe Illustrator 23.0.0, SVG Export Plug-In . SVG Version: 6.00 Build 0)  -->
<svg version="1.1" id="레이어_1" xmlns="http://www.w3.org/2000/svg" xmlns:xlink="http://www.w3.org/1999/xlink" x="0px"
	 y="0px" viewBox="0 0 205.52 254.86" style="enable-background:new 0 0 205.52 254.86;" xml:space="preserve">
<style type="text/css">
	.st0{fill:#5AB2FF;}
	.st1{fill:none;stroke:#000000;stroke-width:14;stroke-miterlimit:10;}
	.st2{fill:none;}
	.st3{fill:#225786;}
	.st4{fill:#EDF0E0;}
	.st5{fill:none;stroke:#000000;stroke-width:2;stroke-miterlimit:10;}
</style>
<path class="st2" d="M62.7,207.14c12.42,0,22.02-2.25,28.83-6.74c6.8-4.49,12.24-12.33,16.3-23.51c4.06-11.18,6.09-27.33,6.09-48.45
	c0-19.55-2.24-34.6-6.72-45.16c-4.48-10.56-10.09-17.72-16.83-21.49c-6.75-3.76-15.97-5.65-27.67-5.65h-9.13v150.99H62.7z"/>
<path class="st3" d="M0,234.06c0,3.91,9.5,12.47,13.03,12.47H64.1c17.5,0,32.08-1.57,43.75-4.71c11.66-3.14,22.14-9.31,31.43-18.52
	c9.28-9.2,16.78-21.8,22.5-37.79c5.71-15.99,8.57-34.31,8.57-54.96c0-29.06-4.7-52.13-14.11-69.18
	c-9.41-17.06-21.93-28.76-37.59-35.1c-15.65-6.34-35.98-9.51-60.98-9.51H38.22c-0.64,0-1.28,0.11-1.89,0.31
	c-10.59,3.6-21.1,7.42-31.7,10.85C1.89,28.8,0,31.56,0,34.71V234.06z M62.7,56.14c11.7,0,20.92,1.88,27.67,5.65
	c6.75,3.76,12.36,10.93,16.83,21.49c4.48,10.56,6.72,25.62,6.72,45.16c0,21.12-2.03,37.27-6.09,48.45
	c-4.06,11.18-9.49,19.02-16.3,23.51c-6.81,4.49-16.42,6.74-28.83,6.74h-2.74c-3.53,0-6.39-3.17-6.39-7.07V63.22
	c0-3.91,2.86-7.07,6.39-7.07H62.7z"/>
</svg>
