<?xml version="1.0" encoding="utf-8"?>
<!-- Generator: Adobe Illustrator 23.0.0, SVG Export Plug-In . SVG Version: 6.00 Build 0)  -->
<svg version="1.1" id="레이어_1" xmlns="http://www.w3.org/2000/svg" xmlns:xlink="http://www.w3.org/1999/xlink" x="0px"
	 y="0px" viewBox="0 0 176.95 254.86" style="enable-background:new 0 0 176.95 254.86;" xml:space="preserve">
<style type="text/css">
	.st0{fill:#5AB2FF;}
	.st1{fill:none;stroke:#000000;stroke-width:14;stroke-miterlimit:10;}
	.st2{fill:none;}
	.st3{fill:#225786;}
	.st4{fill:#EDF0E0;}
	.st5{fill:none;stroke:#000000;stroke-width:2;stroke-miterlimit:10;}
</style>
<path class="st2" d="M88.38,54.29c-11.07,0-19.17,5.16-24.28,15.49c-5.12,10.33-7.68,30.92-7.68,61.78c0,30.3,2.53,50.78,7.59,61.44
	c5.06,10.66,13.18,15.99,24.37,15.99c11.07,0,19.19-5.11,24.37-15.32c5.18-10.21,7.77-30.92,7.77-62.11
	c0-30.97-2.56-51.59-7.68-61.86C107.73,59.43,99.57,54.29,88.38,54.29z"/>
<path class="st3" d="M88.38,13.22c-3.11,0-6.14,0.11-9.09,0.33c-0.88,0.07-1.74,0.24-2.58,0.52c-12.48,4.04-24.81,8.64-37.29,12.81
	c-1.11,0.37-2.18,0.9-3.14,1.63C12.09,46.67,0,81.02,0,131.56c0,38.72,7.44,68.15,22.32,88.29c14.88,20.14,36.96,30.22,66.24,30.22
	c58.92,0,88.38-39.5,88.38-118.51c0-39.39-7.56-68.96-22.68-88.71C139.15,23.1,117.19,13.22,88.38,13.22z M112.76,193.67
	c-5.18,10.21-13.3,15.32-24.37,15.32c-11.19,0-19.31-5.33-24.37-15.99c-5.06-10.66-7.59-31.14-7.59-61.44
	c0-30.86,2.56-51.45,7.68-61.78c5.12-10.32,13.21-15.49,24.28-15.49c11.19,0,19.34,5.13,24.46,15.4
	c5.12,10.27,7.68,30.89,7.68,61.86C120.52,162.76,117.93,183.46,112.76,193.67z"/>
</svg>
