<?xml version="1.0" encoding="utf-8"?>
<!-- Generator: Adobe Illustrator 23.0.0, SVG Export Plug-In . SVG Version: 6.00 Build 0)  -->
<svg version="1.1" id="레이어_1" xmlns="http://www.w3.org/2000/svg" xmlns:xlink="http://www.w3.org/1999/xlink" x="0px"
	 y="0px" viewBox="0 0 179.91 254.86" style="enable-background:new 0 0 179.91 254.86;" xml:space="preserve">
<style type="text/css">
	.st0{fill:#5AB2FF;}
	.st1{fill:none;stroke:#000000;stroke-width:14;stroke-miterlimit:10;}
	.st2{fill:none;}
	.st3{fill:#225786;}
	.st4{fill:#EDF0E0;}
	.st5{fill:none;stroke:#000000;stroke-width:2;stroke-miterlimit:10;}
</style>
<path class="st3" d="M24.67,37.79C10.56,50.98,3.51,67.9,3.51,88.55c0,12.12,2.97,22.92,8.93,32.4
	c5.95,9.48,13.51,16.78,22.68,21.88c9.17,5.11,23.09,10.8,41.78,17.09c14.52,4.94,23.81,9.62,27.85,14.06
	c4.05,4.43,6.07,9.46,6.07,15.07c0,7.41-2.89,13.38-8.66,17.93c-5.77,4.54-15.71,9.74-24.99,9.74c-16.23,0-31.4-6.4-38.32-21.1
	c-3.41-7.23-7.76-13.69-14.93-11.76l-11.56,2.85c-10.54,2.84-15.61,16.13-10.1,26.46c14.82,27.8,40.18,41.7,76.07,41.7
	c26.31,0,47.29-6.87,62.94-20.62c15.65-13.75,23.48-31.34,23.48-52.77c0-12.23-2.77-22.98-8.3-32.24
	c-5.54-9.26-12.8-16.58-21.78-21.97c-8.99-5.39-21.34-10.83-37.05-16.33c-17.26-6.28-28.6-11.36-34.01-15.23
	c-5.42-3.87-8.12-9.06-8.12-15.57c0-5.61,2.29-10.52,6.87-14.73c4.58-4.21,10.8-6.31,18.66-6.31c12.84,0,22.62,5.55,29.33,16.66
	c4.02,6.66,11.57,9.53,18.45,7.05l13.68-4.94c10.31-3.72,14.43-17.38,8.25-27.23c-1.06-1.7-2.19-3.32-3.37-4.89
	c-2.26-2.99-5.32-5.11-8.75-6c-20.13-5.21-39.94-11.8-59.88-16.33c-18.52-4.2-38.13,0.38-52.41,12.9
	C25.75,36.79,25.21,37.29,24.67,37.79z"/>
</svg>
