<?xml version="1.0" encoding="utf-8"?>
<!-- Generator: Adobe Illustrator 23.0.0, SVG Export Plug-In . SVG Version: 6.00 Build 0)  -->
<svg version="1.1" id="레이어_1" xmlns="http://www.w3.org/2000/svg" xmlns:xlink="http://www.w3.org/1999/xlink" x="0px"
	 y="0px" width="36.57px" height="52.75px" viewBox="0 0 36.57 52.75" style="enable-background:new 0 0 36.57 52.75;"
	 xml:space="preserve">
<g>
	<path d="M18.32,52.75c-3.49,0-6.82-0.65-9.98-1.96C5.16,49.48,2.39,47.65,0,45.31l5.23-6.27c1.84,1.75,3.91,3.14,6.23,4.2
		c2.32,1.06,4.65,1.58,6.99,1.58c2.89,0,5.08-0.6,6.58-1.79c1.49-1.19,2.24-2.75,2.24-4.68c0-1.42-0.34-2.57-1.03-3.44
		c-0.69-0.87-1.62-1.62-2.79-2.24c-1.17-0.62-2.51-1.25-4.03-1.89l-6.96-2.96c-1.65-0.69-3.27-1.61-4.85-2.75
		c-1.58-1.15-2.89-2.6-3.93-4.37c-1.03-1.77-1.55-3.87-1.55-6.3c0-2.75,0.73-5.21,2.2-7.37c1.47-2.16,3.5-3.87,6.09-5.13
		C13.03,0.63,15.98,0,19.28,0c2.98,0,5.85,0.58,8.61,1.72c2.75,1.15,5.12,2.73,7.09,4.75l-4.68,5.78C28.69,10.88,27,9.8,25.24,9.02
		c-1.77-0.78-3.75-1.17-5.96-1.17c-2.39,0-4.29,0.53-5.72,1.58c-1.42,1.06-2.13,2.5-2.13,4.34c0,1.33,0.38,2.43,1.14,3.31
		s1.74,1.6,2.96,2.17c1.22,0.57,2.54,1.16,3.96,1.76l6.82,2.82c2.02,0.83,3.8,1.85,5.34,3.06c1.54,1.22,2.74,2.69,3.62,4.41
		c0.87,1.72,1.31,3.82,1.31,6.3c0,2.75-0.72,5.28-2.17,7.58c-1.45,2.3-3.54,4.13-6.27,5.51C25.4,52.06,22.13,52.75,18.32,52.75z"/>
</g>
</svg>
