<?xml version="1.0" encoding="utf-8"?>
<!-- Generator: Adobe Illustrator 23.0.0, SVG Export Plug-In . SVG Version: 6.00 Build 0)  -->
<svg version="1.1" id="레이어_1" xmlns="http://www.w3.org/2000/svg" xmlns:xlink="http://www.w3.org/1999/xlink" x="0px"
	 y="0px" viewBox="0 0 1972 1000" style="enable-background:new 0 0 1972 1000;" xml:space="preserve">
<style type="text/css">
	.st0{fill:#5AB2FF;}
	.st1{fill:none;stroke:#000000;stroke-width:14;stroke-miterlimit:10;}
	.st2{fill:none;}
	.st3{fill:#225786;}
	.st4{fill:#EDF0E0;}
	.st5{font-family:'NanumSquare_acR';}
	.st6{font-size:75.923px;}
	.st7{fill:none;stroke:#000000;stroke-width:2;stroke-miterlimit:10;}
</style>
<path d="M280.36,170.13c-13.62,12.73-20.43,29.07-20.43,49c0,11.7,2.87,22.13,8.62,31.29c5.75,9.16,13.04,16.2,21.89,21.13
	c8.85,4.93,22.3,10.43,40.34,16.5c14.02,4.77,22.99,9.29,26.89,13.57c3.91,4.28,5.86,9.13,5.86,14.55c0,7.15-2.79,12.92-8.36,17.31
	c-5.58,4.39-15.17,9.4-24.13,9.4c-15.67,0-30.32-6.18-37-20.37c-3.29-6.98-7.5-13.22-14.41-11.35l-11.17,2.75
	c-10.17,2.75-15.07,15.58-9.75,25.55c14.31,26.84,38.79,40.26,73.45,40.26c25.4,0,45.66-6.64,60.77-19.91
	c15.11-13.27,22.67-30.26,22.67-50.95c0-11.81-2.67-22.19-8.02-31.12c-5.34-8.94-12.36-16.01-21.03-21.21
	c-8.68-5.2-20.6-10.46-35.77-15.77c-16.67-6.07-27.61-10.97-32.84-14.71c-5.23-3.74-7.84-8.75-7.84-15.03
	c0-5.42,2.21-10.16,6.64-14.22c4.42-4.06,10.43-6.09,18.02-6.09c12.4,0,21.84,5.36,28.32,16.08c3.88,6.43,11.17,9.2,17.81,6.8
	l13.21-4.77c9.95-3.59,13.94-16.78,7.97-26.29c-1.03-1.64-2.11-3.21-3.25-4.72c-2.18-2.88-5.14-4.94-8.45-5.79
	c-19.44-5.03-38.56-11.4-57.81-15.76c-17.88-4.06-36.82,0.37-50.6,12.46C281.41,169.17,280.88,169.65,280.36,170.13z"/>
<path d="M430.25,178.44v10.9c0,1.56,1.27,2.83,2.83,2.83h41.23c1.56,0,2.83,1.27,2.83,2.83v168.83c0,1.44,1.08,2.65,2.5,2.81
	l46.05,5.4c1.68,0.2,3.16-1.12,3.16-2.81V195.01c0-1.56,1.27-2.83,2.83-2.83h42.43c1.56,0,2.83-1.27,2.83-2.83V153.4
	c0-1.56-1.27-2.83-2.83-2.83h-17.02c-0.25,0-0.51,0.03-0.75,0.1c-36.91,9.98-72.88,25.65-112.31,25.4
	c-3.61-0.02-7.2-0.18-10.77-0.45C431.65,175.49,430.25,176.79,430.25,178.44z"/>
<path d="M744.26,171.22c-9.57-0.23-18.79-1.58-27.81-3.57c-2.25-0.5-4.35,1.41-4.35,3.94v105c0,17.99-0.58,30.29-1.72,36.89
	c-1.15,6.61-4.25,11.92-9.31,15.93c-5.06,4.01-11.9,6.01-20.52,6.01c-7.93,0-14.63-1.81-20.08-5.44
	c-5.46-3.63-9.05-8.96-10.78-16.01c-1.72-7.04-2.59-19.5-2.59-37.38V153.85c0-2.22-1.63-4.03-3.64-4.03h-44.44
	c-2.01,0-3.64,1.8-3.64,4.03v122.75c0,29.47,2.47,50.03,7.41,61.68c4.94,11.65,13.27,20.7,25,27.14
	c11.72,6.45,27.81,9.67,48.27,9.67c21.84,0,38.99-4.39,51.46-13.16c12.47-8.78,20.23-19.29,23.27-31.53
	c3.04-12.24,4.57-30.82,4.57-55.75V175.2c0-2.27-1.69-4.09-3.74-4.02C749.2,171.26,746.74,171.28,744.26,171.22z"/>
<path d="M799.86,359.63c0,3.77,9.18,12.04,12.59,12.04h49.31c16.89,0,30.97-1.52,42.24-4.55c11.26-3.03,21.38-8.99,30.34-17.88
	c8.96-8.88,16.21-21.05,21.72-36.49c5.52-15.44,8.27-33.13,8.27-53.07c0-28.06-4.54-50.33-13.62-66.8
	c-9.08-16.47-21.18-27.76-36.29-33.89c-15.11-6.12-34.74-9.18-58.87-9.18h-18.78c-0.62,0-1.23,0.1-1.82,0.3
	c-10.22,3.47-20.37,7.17-30.61,10.48c-2.64,0.85-4.47,3.52-4.47,6.56V359.63z M860.39,187.85c11.3,0,20.2,1.82,26.71,5.45
	c6.51,3.63,11.93,10.55,16.25,20.75c4.32,10.2,6.48,24.73,6.48,43.61c0,20.39-1.96,35.98-5.88,46.78
	c-3.92,10.79-9.16,18.36-15.73,22.7c-6.57,4.34-15.85,6.51-27.84,6.51h-2.64c-3.41,0-6.17-3.06-6.17-6.83V194.68
	c0-3.77,2.76-6.83,6.17-6.83H860.39z"/>
<path d="M1004.34,371.67h10.74c3.34,0,34.93-7.69,34.93-11.39V177.38c0-3.44-2.36-6.29-5.45-6.65c-13.2-1.55-26.01-4.72-38.66-8.52
	c-3.84-1.15-7.62,2.06-7.62,6.46v196.32C998.29,368.68,1000.99,371.67,1004.34,371.67z"/>
<path d="M1171.37,146.41c-3,0-5.93,0.11-8.77,0.32c-0.85,0.06-1.68,0.23-2.49,0.5c-12.05,3.9-23.95,8.35-36.01,12.37
	c-1.07,0.36-2.1,0.87-3.03,1.57c-23.35,17.54-35.03,50.7-35.03,99.5c0,37.38,7.18,65.8,21.55,85.25
	c14.37,19.45,35.69,29.17,63.96,29.17c56.89,0,85.34-38.14,85.34-114.42c0-38.03-7.3-66.58-21.89-85.65
	C1220.39,155.94,1199.19,146.41,1171.37,146.41z M1194.91,320.64c-5,9.86-12.84,14.79-23.53,14.79c-10.8,0-18.65-5.14-23.53-15.44
	c-4.89-10.29-7.33-30.07-7.33-59.32c0-29.8,2.47-49.68,7.41-59.65c4.94-9.97,12.76-14.95,23.45-14.95c10.8,0,18.68,4.96,23.62,14.87
	c4.94,9.91,7.41,29.82,7.41,59.73C1202.41,290.79,1199.91,310.78,1194.91,320.64z"/>
<polygon points="321.12,676.48 381.72,799.19 488.41,799.19 488.41,597.88 431.67,597.88 431.67,774.69 345.82,597.88 
	264.38,597.88 264.38,799.19 321.12,799.19 "/>
<path d="M700.58,833.19c-7.18,5.14-19.55,6.32-31.77,6.32c-11.25,0-26.32-2.18-34.06-6.84c-1.55-0.93-8.08-5.64-9.42-6.75l0,0
	l-67.2,0c-1.89,0-3.27,1.81-2.74,3.63c1.1,3.8,2.34,7.17,3.71,10.09c7.01,14.94,18.83,26.55,35.46,34.82
	c16.63,8.27,39.65,8.76,68.67,8.76c30.98,0,55.12-1.99,72.82-13.25c17.69-11.26,28.7-24.74,33.02-40.45l0,0
	c0.5-1.81-0.87-3.6-2.75-3.6h-55.67l0,0C709.72,826.74,701.62,832.45,700.58,833.19z"/>
<path d="M621.95,760.51V597.88h-73.37v162.64c0,14.6,0.52,27.49,1.57,38.67h73.7C622.58,789.88,621.95,777.01,621.95,760.51z"/>
<path d="M775.54,758.01V597.88h-61.39v162.64c0,16.74-0.43,29.62-1.29,38.67h61.11C775.02,787.42,775.54,773.7,775.54,758.01z"/>
<path d="M898.32,643.99l38.39,146.69c47.3-6.47,82.25-15.93,110.36-23.82l35.18-122.87l0,113.32c37.27-9.67,41.44-12.26,68.73-19.61
	c0,0,0,0,0,0l0-139.99h-104.43l-53.07,175.77l-47.2-175.77H838.64v200.35c21.61-0.44,41.43-1.54,59.68-3.11V643.99z"/>
<path d="M1330.89,725.68c31.56,6.04,54.63,13.34,75.52,20.78c-6.38-7.21-13.94-13.22-22.73-17.98
	c-12.31-6.67-29.23-13.41-50.75-20.23c-23.64-7.78-39.18-14.07-46.59-18.87c-7.42-4.8-11.13-11.22-11.13-19.29
	c0-6.95,3.14-13.03,9.42-18.25c6.27-5.21,14.8-7.82,25.56-7.82c22.99,0,38.8,11.75,47.45,35.24l60.65-19.81
	c-14.35-44.2-50.55-66.31-108.59-66.31c-31.79,0-57.35,8.17-76.67,24.5c-19.32,16.34-28.98,37.29-28.98,62.87
	c0,15.01,4.07,28.39,12.23,40.14l1.22,1.76C1254.31,716.6,1287.32,717.34,1330.89,725.68z"/>
<path d="M1543.51,786.63V598.88h-73.37v170.96c0,0,0,0,0,0l4.64,1.27C1498.62,777.63,1520.73,782.69,1543.51,786.63z"/>
<path d="M1679.99,829.11c-27.47-0.84-51.43-6.95-73.37-8.83v62.21h180.99v-53.38H1679.99L1679.99,829.11L1679.99,829.11z"/>
<path d="M1679.99,599.05h-73.37v195.71c21.94,1.87,45.9,3.12,73.37,3.95V599.05z"/>
<g>
	<path d="M861.46,820.93h3.64c0.47,0,0.7,0.29,0.7,0.87v59.37c0,0.58-0.23,0.87-0.7,0.87h-3.57c-0.47,0-0.7-0.29-0.7-0.87v-46.79
		c0-0.17-0.04-0.26-0.1-0.26c-0.07,0-0.15,0.06-0.25,0.17l-7.08,20.48c-0.14,0.41-0.61,1.9-0.94,1.9c-0.37,0-1-1.82-1.14-2.23
		l-6.87-20.07c-0.09-0.12-0.18-0.17-0.25-0.17s-0.1,0.09-0.1,0.26v46.71c0,0.58-0.23,0.87-0.7,0.87h-3.57c-0.47,0-0.7-0.29-0.7-0.87
		v-59.37c0-0.58,0.23-0.87,0.7-0.87h3.64c0.42,0,0.7,0.21,0.84,0.61l7.36,21.08c0.05,0.12,0.74,2.24,0.84,2.24
		c0.09,0,0.74-2.01,0.78-2.12l7.33-21.2C860.76,821.14,861.04,820.93,861.46,820.93z M853.4,854.78c-0.14,0.41-0.61,1.9-0.94,1.9
		c-0.37,0-1-1.82-1.14-2.23"/>
	<path d="M893.46,881.26l-1.75-10.83c0-0.12-0.04-0.2-0.1-0.26c-0.07-0.06-0.15-0.09-0.25-0.09h-12.67c-0.09,0-0.17,0.03-0.25,0.09
		c-0.07,0.06-0.1,0.15-0.1,0.26l-1.75,10.83c-0.05,0.52-0.3,0.79-0.77,0.79h-3.57c-0.23,0-0.41-0.09-0.53-0.26
		c-0.12-0.17-0.15-0.41-0.1-0.7l10.5-59.37c0.09-0.52,0.35-0.79,0.77-0.79h4.2c0.47,0,0.72,0.26,0.77,0.79l10.64,59.37v0.17
		c0,0.52-0.21,0.79-0.63,0.79h-3.64C893.81,882.05,893.55,881.78,893.46,881.26z M879.46,865.02h11.06c0.14,0,0.21-0.12,0.21-0.35
		l-5.6-34.31c-0.05-0.17-0.09-0.26-0.14-0.26c-0.05,0-0.09,0.09-0.14,0.26l-5.6,34.31C879.25,864.91,879.32,865.02,879.46,865.02z"
		/>
	<path d="M904.45,881.17v-59.37c0-0.58,0.23-0.87,0.7-0.87h3.57c0.47,0,0.7,0.29,0.7,0.87v28.29c0,0.17,0.05,0.29,0.14,0.35
		c0.09,0.06,0.16,0,0.21-0.17l13.51-28.72c0.23-0.41,0.51-0.61,0.84-0.61h3.92c0.28,0,0.47,0.1,0.56,0.31
		c0.09,0.2,0.07,0.45-0.07,0.74l-10.92,23.66c-0.09,0.23-0.12,0.41-0.07,0.52L929.59,881l0.07,0.35c0,0.47-0.21,0.7-0.63,0.7h-3.99
		c-0.37,0-0.63-0.23-0.77-0.7l-10.08-29.68c-0.05-0.23-0.16-0.23-0.35,0l-4.34,8.38c-0.05,0.06-0.07,0.2-0.07,0.44v20.69
		c0,0.58-0.23,0.87-0.7,0.87h-3.57C904.69,882.05,904.45,881.76,904.45,881.17z"/>
	<path d="M957.6,826.35h-16.24c-0.19,0-0.28,0.12-0.28,0.35v21.65c0,0.23,0.09,0.35,0.28,0.35h10.22c0.47,0,0.7,0.29,0.7,0.87v3.75
		c0,0.58-0.23,0.87-0.7,0.87h-10.22c-0.19,0-0.28,0.12-0.28,0.35v21.74c0,0.23,0.09,0.35,0.28,0.35h16.24c0.47,0,0.7,0.29,0.7,0.87
		v3.67c0,0.58-0.23,0.87-0.7,0.87H936.8c-0.47,0-0.7-0.29-0.7-0.87v-59.37c0-0.58,0.23-0.87,0.7-0.87h20.79
		c0.47,0,0.7,0.29,0.7,0.87v3.67C958.3,826.06,958.06,826.35,957.6,826.35z"/>
	<path d="M987.49,881.09v-26.1c0-0.23-0.02-0.38-0.07-0.44l-9.73-32.56l-0.07-0.35c0-0.46,0.21-0.7,0.63-0.7h3.78
		c0.42,0,0.7,0.23,0.84,0.7l6.86,25.58c0.05,0.12,0.12,0.17,0.21,0.17c0.09,0,0.16-0.06,0.21-0.17l6.86-25.58
		c0.14-0.46,0.42-0.7,0.84-0.7h3.78c0.23,0,0.41,0.1,0.52,0.31c0.12,0.2,0.13,0.45,0.04,0.74l-9.66,32.56
		c-0.05,0.06-0.07,0.21-0.07,0.44v26.1c0,0.58-0.23,0.87-0.7,0.87h-3.57C987.72,881.96,987.49,881.67,987.49,881.09z"/>
	<path d="M1011.19,878.55c-2.22-2.79-3.33-6.49-3.33-11.09v-31.95c0-4.6,1.11-8.29,3.33-11.09c2.22-2.79,5.12-4.19,8.72-4.19
		c3.64,0,6.58,1.4,8.82,4.19c2.24,2.79,3.36,6.49,3.36,11.09v31.95c0,4.54-1.12,8.22-3.36,11.04c-2.24,2.82-5.18,4.23-8.82,4.23
		C1016.32,882.74,1013.41,881.35,1011.19,878.55z M1025.13,874.67c1.33-1.77,2-4.06,2-6.85v-32.56c0-2.85-0.67-5.16-2-6.94
		c-1.33-1.77-3.07-2.66-5.22-2.66c-2.1,0-3.81,0.89-5.11,2.66c-1.31,1.78-1.96,4.09-1.96,6.94v32.56c0,2.79,0.65,5.08,1.96,6.85
		c1.31,1.78,3.01,2.66,5.11,2.66C1022.06,877.33,1023.8,876.45,1025.13,874.67z"/>
	<path d="M1043.86,878.12c-2.19-3.08-3.29-7.16-3.29-12.22v-44.09c0-0.58,0.23-0.87,0.7-0.87h3.57c0.47,0,0.7,0.29,0.7,0.87v44.79
		c0,3.2,0.64,5.79,1.92,7.77c1.28,1.98,2.98,2.97,5.08,2.97c2.15,0,3.87-0.99,5.18-2.97c1.31-1.98,1.96-4.57,1.96-7.77v-44.79
		c0-0.58,0.23-0.87,0.7-0.87h3.57c0.47,0,0.7,0.29,0.7,0.87v44.09c0,5.06-1.11,9.14-3.33,12.22c-2.22,3.09-5.15,4.63-8.79,4.63
		C1048.94,882.74,1046.05,881.2,1043.86,878.12z"/>
	<path d="M1093.08,881.35l-7.14-26.98c-0.05-0.17-0.14-0.26-0.28-0.26h-6.09c-0.19,0-0.28,0.12-0.28,0.35v26.71
		c0,0.58-0.23,0.87-0.7,0.87h-3.57c-0.47,0-0.7-0.29-0.7-0.87v-59.37c0-0.58,0.23-0.87,0.7-0.87h11.55c3.41,0,6.16,1.56,8.26,4.67
		c2.1,3.11,3.15,7.17,3.15,12.18c0,3.78-0.65,7.04-1.96,9.78c-1.31,2.74-3.08,4.66-5.32,5.76c-0.19,0.06-0.26,0.2-0.21,0.44
		l7.63,27.33l0.07,0.35c0,0.41-0.21,0.61-0.63,0.61h-3.64C1093.5,882.05,1093.22,881.81,1093.08,881.35z M1079.29,826.7v22.09
		c0,0.23,0.09,0.35,0.28,0.35h6.3c2.15,0,3.87-1.03,5.18-3.1c1.31-2.07,1.96-4.82,1.96-8.25c0-3.43-0.65-6.2-1.96-8.29
		c-1.31-2.09-3.04-3.14-5.18-3.14h-6.3C1079.38,826.35,1079.29,826.46,1079.29,826.7z"/>
	<path d="M1120.46,878.47c-2.15-2.85-3.22-6.58-3.22-11.17v-2.01c0-0.58,0.23-0.87,0.7-0.87h3.43c0.47,0,0.7,0.29,0.7,0.87v1.75
		c0,3.09,0.63,5.57,1.89,7.46c1.26,1.89,2.89,2.84,4.9,2.84c1.96,0,3.59-0.9,4.9-2.71c1.31-1.8,1.96-4.19,1.96-7.16
		c0-1.98-0.32-3.68-0.95-5.11c-0.63-1.43-1.45-2.68-2.45-3.75c-1-1.08-2.67-2.72-5.01-4.93c-2.33-2.15-4.18-4-5.53-5.54
		c-1.35-1.54-2.46-3.39-3.33-5.54c-0.86-2.15-1.29-4.68-1.29-7.6c0-4.54,1.05-8.13,3.15-10.78c2.1-2.65,4.83-3.97,8.19-3.97
		c3.55,0,6.38,1.44,8.51,4.32s3.19,6.71,3.19,11.48v2.18c0,0.58-0.23,0.87-0.7,0.87h-3.5c-0.47,0-0.7-0.29-0.7-0.87v-2.27
		c0-3.08-0.62-5.57-1.86-7.46c-1.24-1.89-2.88-2.84-4.94-2.84c-1.87,0-3.41,0.83-4.62,2.49c-1.21,1.66-1.82,4-1.82,7.03
		c0,1.8,0.27,3.39,0.8,4.76c0.54,1.37,1.34,2.66,2.42,3.88c1.07,1.22,2.66,2.82,4.76,4.8c2.8,2.56,4.89,4.64,6.27,6.24
		c1.38,1.6,2.44,3.35,3.19,5.24c0.75,1.89,1.12,4.18,1.12,6.85c0,4.77-1.1,8.6-3.29,11.48c-2.2,2.88-5.02,4.32-8.47,4.32
		C1125.4,882.74,1122.6,881.32,1120.46,878.47z"/>
	<path d="M1150.6,878.55c-2.22-2.79-3.33-6.49-3.33-11.09v-31.95c0-4.6,1.11-8.29,3.33-11.09c2.22-2.79,5.12-4.19,8.72-4.19
		c3.64,0,6.58,1.4,8.82,4.19c2.24,2.79,3.36,6.49,3.36,11.09v31.95c0,4.54-1.12,8.22-3.36,11.04c-2.24,2.82-5.18,4.23-8.82,4.23
		C1155.72,882.74,1152.81,881.35,1150.6,878.55z M1164.53,874.67c1.33-1.77,2-4.06,2-6.85v-32.56c0-2.85-0.67-5.16-2-6.94
		c-1.33-1.77-3.07-2.66-5.22-2.66c-2.1,0-3.81,0.89-5.11,2.66c-1.31,1.78-1.96,4.09-1.96,6.94v32.56c0,2.79,0.65,5.08,1.96,6.85
		c1.31,1.78,3.01,2.66,5.11,2.66C1161.46,877.33,1163.2,876.45,1164.53,874.67z"/>
	<path d="M1183.26,878.12c-2.19-3.08-3.29-7.16-3.29-12.22v-44.09c0-0.58,0.23-0.87,0.7-0.87h3.57c0.47,0,0.7,0.29,0.7,0.87v44.79
		c0,3.2,0.64,5.79,1.92,7.77c1.28,1.98,2.98,2.97,5.08,2.97c2.15,0,3.87-0.99,5.18-2.97c1.31-1.98,1.96-4.57,1.96-7.77v-44.79
		c0-0.58,0.23-0.87,0.7-0.87h3.57c0.47,0,0.7,0.29,0.7,0.87v44.09c0,5.06-1.11,9.14-3.33,12.22c-2.22,3.09-5.15,4.63-8.79,4.63
		C1188.35,882.74,1185.45,881.2,1183.26,878.12z"/>
	<path d="M1233.04,820.93h3.5c0.47,0,0.7,0.29,0.7,0.87v59.37c0,0.58-0.23,0.87-0.7,0.87h-4.13c-0.38,0-0.63-0.23-0.77-0.7
		l-13.65-45.14c-0.05-0.17-0.12-0.25-0.21-0.22c-0.09,0.03-0.14,0.13-0.14,0.31l0.07,44.87c0,0.58-0.23,0.87-0.7,0.87h-3.57
		c-0.47,0-0.7-0.29-0.7-0.87v-59.37c0-0.58,0.23-0.87,0.7-0.87h4.06c0.37,0,0.63,0.23,0.77,0.7l13.72,45.22
		c0.05,0.17,0.12,0.25,0.21,0.22c0.09-0.03,0.14-0.13,0.14-0.31v-44.96C1232.34,821.23,1232.58,820.93,1233.04,820.93z"/>
	<path d="M1247.26,881.17v-59.37c0-0.58,0.23-0.87,0.7-0.87h10.78c3.59,0,6.46,1.47,8.61,4.41c2.15,2.94,3.22,6.88,3.22,11.83v28.64
		c0,4.95-1.07,8.89-3.22,11.83c-2.15,2.94-5.02,4.41-8.61,4.41h-10.78C1247.49,882.05,1247.26,881.76,1247.26,881.17z
		 M1252.51,876.63l6.16-0.09c2.05,0,3.7-0.99,4.94-2.97c1.24-1.98,1.88-4.66,1.93-8.03v-28.11c0-3.43-0.61-6.14-1.82-8.12
		c-1.21-1.98-2.89-2.97-5.04-2.97h-6.16c-0.19,0-0.28,0.12-0.28,0.35v49.59C1252.23,876.52,1252.32,876.63,1252.51,876.63z"/>
	<path d="M1295.88,878.64c-2.17-2.73-3.26-6.4-3.26-11v-32.39c0-4.54,1.09-8.18,3.26-10.91c2.17-2.74,5.05-4.1,8.65-4.1
		c3.64,0,6.55,1.35,8.72,4.06c2.17,2.71,3.26,6.36,3.26,10.96v1.48c0,0.58-0.23,0.87-0.7,0.87l-3.64,0.26c-0.47,0-0.7-0.29-0.7-0.87
		v-2.18c0-2.73-0.63-4.95-1.89-6.63c-1.26-1.69-2.94-2.53-5.04-2.53c-2.05,0-3.72,0.84-5.01,2.53c-1.29,1.69-1.93,3.9-1.93,6.63
		v33.35c0,2.74,0.64,4.95,1.93,6.63c1.28,1.69,2.95,2.53,5.01,2.53c2.1,0,3.78-0.84,5.04-2.53c1.26-1.69,1.89-3.9,1.89-6.63v-2.18
		c0-0.58,0.23-0.87,0.7-0.87l3.64,0.26c0.47,0,0.7,0.29,0.7,0.87v1.4c0,4.6-1.1,8.27-3.29,11c-2.2,2.74-5.09,4.1-8.68,4.1
		C1300.94,882.74,1298.05,881.38,1295.88,878.64z"/>
	<path d="M1327.18,878.55c-2.22-2.79-3.33-6.49-3.33-11.09v-31.95c0-4.6,1.11-8.29,3.33-11.09c2.22-2.79,5.12-4.19,8.72-4.19
		c3.64,0,6.58,1.4,8.82,4.19c2.24,2.79,3.36,6.49,3.36,11.09v31.95c0,4.54-1.12,8.22-3.36,11.04c-2.24,2.82-5.18,4.23-8.82,4.23
		C1332.3,882.74,1329.4,881.35,1327.18,878.55z M1341.12,874.67c1.33-1.77,2-4.06,2-6.85v-32.56c0-2.85-0.67-5.16-2-6.94
		c-1.33-1.77-3.07-2.66-5.22-2.66c-2.1,0-3.81,0.89-5.11,2.66c-1.31,1.78-1.96,4.09-1.96,6.94v32.56c0,2.79,0.65,5.08,1.96,6.85
		c1.31,1.78,3.01,2.66,5.11,2.66C1338.05,877.33,1339.79,876.45,1341.12,874.67z"/>
	<path d="M1377.28,820.93h3.5c0.47,0,0.7,0.29,0.7,0.87v59.37c0,0.58-0.23,0.87-0.7,0.87h-4.13c-0.38,0-0.63-0.23-0.77-0.7
		l-13.65-45.14c-0.05-0.17-0.12-0.25-0.21-0.22c-0.09,0.03-0.14,0.13-0.14,0.31l0.07,44.87c0,0.58-0.23,0.87-0.7,0.87h-3.57
		c-0.47,0-0.7-0.29-0.7-0.87v-59.37c0-0.58,0.23-0.87,0.7-0.87h4.06c0.37,0,0.63,0.23,0.77,0.7l13.72,45.22
		c0.05,0.17,0.12,0.25,0.21,0.22c0.09-0.03,0.14-0.13,0.14-0.31v-44.96C1376.58,821.23,1376.81,820.93,1377.28,820.93z"/>
	<path d="M1412.85,826.35h-16.1c-0.19,0-0.28,0.12-0.28,0.35v21.65c0,0.23,0.09,0.35,0.28,0.35h10.15c0.47,0,0.7,0.29,0.7,0.87v3.75
		c0,0.58-0.23,0.87-0.7,0.87h-10.15c-0.19,0-0.28,0.12-0.28,0.35v26.63c0,0.58-0.23,0.87-0.7,0.87h-3.57c-0.47,0-0.7-0.29-0.7-0.87
		v-59.37c0-0.58,0.23-0.87,0.7-0.87h20.66c0.47,0,0.7,0.29,0.7,0.87v3.67C1413.55,826.06,1413.31,826.35,1412.85,826.35z"/>
	<path d="M1419.78,881.17v-59.37c0-0.58,0.23-0.87,0.7-0.87h3.57c0.47,0,0.7,0.29,0.7,0.87v59.37c0,0.58-0.23,0.87-0.7,0.87h-3.57
		C1420.01,882.05,1419.78,881.76,1419.78,881.17z"/>
	<path d="M1434.83,881.17v-59.37c0-0.58,0.23-0.87,0.7-0.87h10.78c3.59,0,6.46,1.47,8.61,4.41c2.15,2.94,3.22,6.88,3.22,11.83v28.64
		c0,4.95-1.07,8.89-3.22,11.83c-2.15,2.94-5.02,4.41-8.61,4.41h-10.78C1435.07,882.05,1434.83,881.76,1434.83,881.17z
		 M1440.08,876.63l6.16-0.09c2.05,0,3.7-0.99,4.94-2.97c1.24-1.98,1.88-4.66,1.93-8.03v-28.11c0-3.43-0.61-6.14-1.82-8.12
		c-1.21-1.98-2.89-2.97-5.04-2.97h-6.16c-0.19,0-0.28,0.12-0.28,0.35v49.59C1439.8,876.52,1439.9,876.63,1440.08,876.63z"/>
	<path d="M1488.4,826.35h-16.24c-0.19,0-0.28,0.12-0.28,0.35v21.65c0,0.23,0.09,0.35,0.28,0.35h10.22c0.47,0,0.7,0.29,0.7,0.87v3.75
		c0,0.58-0.23,0.87-0.7,0.87h-10.22c-0.19,0-0.28,0.12-0.28,0.35v21.74c0,0.23,0.09,0.35,0.28,0.35h16.24c0.47,0,0.7,0.29,0.7,0.87
		v3.67c0,0.58-0.23,0.87-0.7,0.87h-20.8c-0.47,0-0.7-0.29-0.7-0.87v-59.37c0-0.58,0.23-0.87,0.7-0.87h20.8c0.47,0,0.7,0.29,0.7,0.87
		v3.67C1489.1,826.06,1488.86,826.35,1488.4,826.35z"/>
	<path d="M1517.24,820.93h3.5c0.47,0,0.7,0.29,0.7,0.87v59.37c0,0.58-0.23,0.87-0.7,0.87h-4.13c-0.38,0-0.63-0.23-0.77-0.7
		l-13.65-45.14c-0.05-0.17-0.12-0.25-0.21-0.22c-0.09,0.03-0.14,0.13-0.14,0.31l0.07,44.87c0,0.58-0.23,0.87-0.7,0.87h-3.57
		c-0.47,0-0.7-0.29-0.7-0.87v-59.37c0-0.58,0.23-0.87,0.7-0.87h4.06c0.37,0,0.63,0.23,0.77,0.7l13.72,45.22
		c0.05,0.17,0.12,0.25,0.21,0.22c0.09-0.03,0.14-0.13,0.14-0.31v-44.96C1516.54,821.23,1516.78,820.93,1517.24,820.93z"/>
	<path d="M1553.65,821.81v3.67c0,0.58-0.23,0.87-0.7,0.87h-9.24c-0.19,0-0.28,0.12-0.28,0.35v54.48c0,0.58-0.23,0.87-0.7,0.87h-3.57
		c-0.47,0-0.7-0.29-0.7-0.87V826.7c0-0.23-0.09-0.35-0.28-0.35h-8.68c-0.47,0-0.7-0.29-0.7-0.87v-3.67c0-0.58,0.23-0.87,0.7-0.87
		h23.46C1553.42,820.93,1553.65,821.23,1553.65,821.81z"/>
</g>
<text transform="matrix(1 0 0 1 1592.6144 365.5752)" class="st5 st6">김건우</text>
<g>
	<g>
		<path d="M1442.12,235.16c-2.05,7.24-7.13,12.72-16.31,12.72c-12.47,0-19.04-10.44-19.04-23.29c0-12.33,6.45-23.55,19.1-23.55
			c9.37,0,14.89,5.48,16.31,13.11h-3.35c-1.98-5.94-5.64-9.85-13.15-9.85c-10.79,0-15.32,10.37-15.32,20.23
			c0,9.79,4.47,20.1,15.57,20.1c7.07,0,10.67-3.85,12.84-9.46H1442.12z"/>
		<path d="M1452.97,199.28v20.94c1.74-3.39,4.78-6.26,10.23-6.26c4.4,0,10.48,2.35,10.48,12.66v20.75h-3.1v-20.1
			c0-6.46-2.79-10.11-7.94-10.11c-6.14,0-9.68,3.98-9.68,12.01v18.2h-3.1v-48.09H1452.97z"/>
		<path d="M1483.86,199.28h3.1v6.33h-3.1V199.28z M1483.86,214.74h3.1v32.62h-3.1V214.74z"/>
		<path d="M1497.81,231.45c0.06,8.42,4.09,13.64,10.05,13.64c5.83,0,7.82-3.46,8.93-6.13h3.16c-1.3,4.31-4.59,9.2-12.22,9.2
			c-9.43,0-13.09-8.55-13.09-16.83c0-9.33,4.4-17.36,13.46-17.36c9.55,0,12.59,8.68,12.59,14.81c0,0.91,0,1.83-0.06,2.68H1497.81z
			 M1517.47,228.57c-0.06-6.46-3.41-11.55-9.49-11.55c-6.39,0-9.3,4.7-9.99,11.55H1517.47z"/>
		<path d="M1529.07,247.37v-29.56h-5.33v-3.07h5.33v-4.63c0-5.48,1.49-11.48,8.44-11.48c0.93,0,2.29,0.2,3.04,0.46v3.13
			c-0.93-0.26-2.42-0.39-3.35-0.39c-3.66,0-5.02,2.74-5.02,8.42v4.5h6.76v3.07h-6.76v29.56H1529.07z"/>
		<path d="M1586.44,224.92h-22.14v19.18h24.25l-0.5,3.26h-27.11v-45.67h26.61v3.26h-23.26v16.7h22.14V224.92z"/>
		<path d="M1596.11,222.96c0-2.87,0-5.61-0.06-8.22h3.04c0.12,1.04,0.19,5.28,0.12,6.2c1.36-3.33,3.91-6.98,10.3-6.98
			c5.52,0,10.42,3.26,10.42,12.27v21.14h-3.1v-20.62c0-5.81-2.29-9.59-7.69-9.59c-7.38,0-9.92,6.46-9.92,13.57v16.64h-3.1V222.96z"
			/>
		<path d="M1653.79,245.15c0,10.44-4.4,15.92-13.4,15.92c-8.06,0-11.41-4.76-12.16-9.72h3.16c1.12,4.5,4.65,6.66,9.12,6.66
			c8.06,0,10.3-5.48,10.3-13.77v-3.39c-1.67,4.24-4.71,6.52-10.36,6.52c-7.26,0-12.84-6.2-12.84-16.31
			c0-10.96,5.95-17.09,13.27-17.09c6.33,0,9.06,3.13,9.92,5.74c0.06-1.89,0.13-4.18,0.19-4.96h2.92c0,1.17-0.12,6.33-0.12,9.46
			V245.15z M1630.9,230.92c0,7.76,3.91,13.38,9.86,13.38c7.75,0,10.11-5.42,10.11-13.9c0-8.61-2.48-13.38-9.92-13.38
			C1633.82,217.03,1630.9,223.48,1630.9,230.92z"/>
		<path d="M1663.96,199.28h3.1v6.33h-3.1V199.28z M1663.96,214.74h3.1v32.62h-3.1V214.74z"/>
		<path d="M1677.23,222.96c0-2.87,0-5.61-0.06-8.22h3.04c0.12,1.04,0.19,5.28,0.12,6.2c1.36-3.33,3.91-6.98,10.3-6.98
			c5.52,0,10.42,3.26,10.42,12.27v21.14h-3.1v-20.62c0-5.81-2.3-9.59-7.69-9.59c-7.38,0-9.92,6.46-9.92,13.57v16.64h-3.1V222.96z"/>
		<path d="M1711.9,231.45c0.06,8.42,4.09,13.64,10.05,13.64c5.83,0,7.82-3.46,8.93-6.13h3.16c-1.3,4.31-4.59,9.2-12.22,9.2
			c-9.43,0-13.09-8.55-13.09-16.83c0-9.33,4.4-17.36,13.46-17.36c9.55,0,12.59,8.68,12.59,14.81c0,0.91,0,1.83-0.06,2.68H1711.9z
			 M1731.56,228.57c-0.06-6.46-3.41-11.55-9.49-11.55c-6.39,0-9.3,4.7-9.99,11.55H1731.56z"/>
		<path d="M1743.03,231.45c0.06,8.42,4.09,13.64,10.05,13.64c5.83,0,7.82-3.46,8.93-6.13h3.16c-1.3,4.31-4.59,9.2-12.22,9.2
			c-9.43,0-13.09-8.55-13.09-16.83c0-9.33,4.4-17.36,13.46-17.36c9.55,0,12.59,8.68,12.59,14.81c0,0.91,0,1.83-0.06,2.68H1743.03z
			 M1762.69,228.57c-0.06-6.46-3.41-11.55-9.49-11.55c-6.39,0-9.3,4.7-9.99,11.55H1762.69z"/>
		<path d="M1773.48,223.62c0-5.48-0.06-7.83-0.06-8.87h3.04c0.06,1.04,0.12,3.13,0.12,7.31c1.8-4.89,5.77-7.83,10.79-8.09v3.52
			c-6.45,0.46-10.79,5.15-10.79,12.92v16.96h-3.1V223.62z"/>
	</g>
</g>
<line class="st7" x1="1407.39" y1="270.52" x2="1786.23" y2="270.52"/>
</svg>
