<?xml version="1.0" encoding="utf-8"?>
<!-- Generator: Adobe Illustrator 23.0.0, SVG Export Plug-In . SVG Version: 6.00 Build 0)  -->
<svg version="1.1" id="레이어_1" xmlns="http://www.w3.org/2000/svg" xmlns:xlink="http://www.w3.org/1999/xlink" x="0px"
	 y="0px" viewBox="0 0 767.97 104.94" style="enable-background:new 0 0 767.97 104.94;" xml:space="preserve">
<style type="text/css">
	.st0{fill:#5AB2FF;}
	.st1{fill:none;stroke:#000000;stroke-width:14;stroke-miterlimit:10;}
	.st2{fill:none;}
	.st3{fill:#225786;}
	.st4{fill:#EDF0E0;}
	.st5{fill:none;stroke:#000000;stroke-width:2;stroke-miterlimit:10;}
</style>
<path class="st4" d="M841.34,29.92c-27.47-0.84-51.43-6.95-73.37-8.83V83.3h180.99V29.92H841.34
	C841.34,29.92,841.34,29.92,841.34,29.92L841.34,29.92z"/>
<g>
	<path class="st4" d="M22.82,21.74h3.64c0.47,0,0.7,0.29,0.7,0.87v59.37c0,0.58-0.23,0.87-0.7,0.87h-3.57c-0.47,0-0.7-0.29-0.7-0.87
		V35.19c0-0.17-0.04-0.26-0.1-0.26c-0.07,0-0.15,0.06-0.25,0.17l-7.08,20.48c-0.14,0.41-0.61,1.9-0.94,1.9c-0.37,0-1-1.82-1.14-2.23
		L5.8,35.19c-0.09-0.12-0.18-0.17-0.25-0.17s-0.1,0.09-0.1,0.26v46.71c0,0.58-0.23,0.87-0.7,0.87H1.18c-0.47,0-0.7-0.29-0.7-0.87
		V22.62c0-0.58,0.23-0.87,0.7-0.87h3.64c0.42,0,0.7,0.21,0.84,0.61l7.36,21.08c0.05,0.12,0.74,2.24,0.84,2.24
		c0.09,0,0.74-2.01,0.78-2.12l7.33-21.2C22.12,21.95,22.4,21.74,22.82,21.74z M14.76,55.59c-0.14,0.41-0.61,1.9-0.94,1.9
		c-0.37,0-1-1.82-1.14-2.23"/>
	<path class="st4" d="M54.82,82.07l-1.75-10.83c0-0.12-0.04-0.2-0.1-0.26c-0.07-0.06-0.15-0.09-0.25-0.09H40.04
		c-0.09,0-0.17,0.03-0.25,0.09c-0.07,0.06-0.1,0.15-0.1,0.26l-1.75,10.83c-0.05,0.52-0.3,0.79-0.77,0.79H33.6
		c-0.23,0-0.41-0.09-0.53-0.26c-0.12-0.17-0.15-0.41-0.1-0.7l10.5-59.37c0.09-0.52,0.35-0.79,0.77-0.79h4.2
		c0.47,0,0.72,0.26,0.77,0.79L59.86,81.9v0.17c0,0.52-0.21,0.79-0.63,0.79h-3.64C55.17,82.86,54.91,82.6,54.82,82.07z M40.81,65.83
		h11.06c0.14,0,0.21-0.12,0.21-0.35l-5.6-34.31c-0.05-0.17-0.09-0.26-0.14-0.26c-0.05,0-0.09,0.09-0.14,0.26l-5.6,34.31
		C40.6,65.72,40.67,65.83,40.81,65.83z"/>
	<path class="st4" d="M65.81,81.98V22.62c0-0.58,0.23-0.87,0.7-0.87h3.57c0.47,0,0.7,0.29,0.7,0.87V50.9c0,0.17,0.05,0.29,0.14,0.35
		c0.09,0.06,0.16,0,0.21-0.17l13.51-28.72c0.23-0.41,0.51-0.61,0.84-0.61h3.92c0.28,0,0.47,0.1,0.56,0.31
		c0.09,0.2,0.07,0.45-0.07,0.74L78.97,46.45c-0.09,0.23-0.12,0.41-0.07,0.52l12.04,34.83l0.07,0.35c0,0.47-0.21,0.7-0.63,0.7h-3.99
		c-0.37,0-0.63-0.23-0.77-0.7L75.54,52.48c-0.05-0.23-0.16-0.23-0.35,0l-4.34,8.38c-0.05,0.06-0.07,0.2-0.07,0.44v20.69
		c0,0.58-0.23,0.87-0.7,0.87h-3.57C66.04,82.86,65.81,82.57,65.81,81.98z"/>
	<path class="st4" d="M118.95,27.16h-16.24c-0.19,0-0.28,0.12-0.28,0.35v21.65c0,0.23,0.09,0.35,0.28,0.35h10.22
		c0.47,0,0.7,0.29,0.7,0.87v3.75c0,0.58-0.23,0.87-0.7,0.87h-10.22c-0.19,0-0.28,0.12-0.28,0.35V77.1c0,0.23,0.09,0.35,0.28,0.35
		h16.24c0.47,0,0.7,0.29,0.7,0.87v3.67c0,0.58-0.23,0.87-0.7,0.87H98.16c-0.47,0-0.7-0.29-0.7-0.87V22.62c0-0.58,0.23-0.87,0.7-0.87
		h20.79c0.47,0,0.7,0.29,0.7,0.87v3.67C119.65,26.87,119.42,27.16,118.95,27.16z"/>
	<path class="st4" d="M148.85,81.9v-26.1c0-0.23-0.02-0.38-0.07-0.44l-9.73-32.56l-0.07-0.35c0-0.46,0.21-0.7,0.63-0.7h3.78
		c0.42,0,0.7,0.23,0.84,0.7l6.86,25.58c0.05,0.12,0.12,0.17,0.21,0.17c0.09,0,0.16-0.06,0.21-0.17l6.86-25.58
		c0.14-0.46,0.42-0.7,0.84-0.7h3.78c0.23,0,0.41,0.1,0.52,0.31c0.12,0.2,0.13,0.45,0.04,0.74l-9.66,32.56
		c-0.05,0.06-0.07,0.21-0.07,0.44v26.1c0,0.58-0.23,0.87-0.7,0.87h-3.57C149.08,82.77,148.85,82.48,148.85,81.9z"/>
	<path class="st4" d="M172.55,79.36c-2.22-2.79-3.33-6.49-3.33-11.09V36.32c0-4.6,1.11-8.29,3.33-11.09
		c2.22-2.79,5.12-4.19,8.72-4.19c3.64,0,6.58,1.4,8.82,4.19c2.24,2.79,3.36,6.49,3.36,11.09v31.95c0,4.54-1.12,8.22-3.36,11.04
		c-2.24,2.82-5.18,4.23-8.82,4.23C177.67,83.56,174.77,82.16,172.55,79.36z M186.48,75.48c1.33-1.77,2-4.06,2-6.85V36.06
		c0-2.85-0.67-5.16-2-6.94c-1.33-1.77-3.07-2.66-5.22-2.66c-2.1,0-3.81,0.89-5.11,2.66c-1.31,1.78-1.96,4.09-1.96,6.94v32.56
		c0,2.79,0.65,5.08,1.96,6.85c1.31,1.78,3.01,2.66,5.11,2.66C183.41,78.14,185.15,77.26,186.48,75.48z"/>
	<path class="st4" d="M205.21,78.93c-2.19-3.08-3.29-7.16-3.29-12.22V22.62c0-0.58,0.23-0.87,0.7-0.87h3.57
		c0.47,0,0.7,0.29,0.7,0.87V67.4c0,3.2,0.64,5.79,1.92,7.77c1.28,1.98,2.98,2.97,5.08,2.97c2.15,0,3.87-0.99,5.18-2.97
		c1.31-1.98,1.96-4.57,1.96-7.77V22.62c0-0.58,0.23-0.87,0.7-0.87h3.57c0.47,0,0.7,0.29,0.7,0.87v44.09c0,5.06-1.11,9.14-3.33,12.22
		c-2.22,3.09-5.15,4.63-8.79,4.63C210.3,83.56,207.41,82.01,205.21,78.93z"/>
	<path class="st4" d="M254.44,82.16l-7.14-26.98c-0.05-0.17-0.14-0.26-0.28-0.26h-6.09c-0.19,0-0.28,0.12-0.28,0.35v26.71
		c0,0.58-0.23,0.87-0.7,0.87h-3.57c-0.47,0-0.7-0.29-0.7-0.87V22.62c0-0.58,0.23-0.87,0.7-0.87h11.55c3.41,0,6.16,1.56,8.26,4.67
		c2.1,3.11,3.15,7.17,3.15,12.18c0,3.78-0.65,7.04-1.96,9.78c-1.31,2.74-3.08,4.66-5.32,5.76c-0.19,0.06-0.26,0.2-0.21,0.44
		l7.63,27.33l0.07,0.35c0,0.41-0.21,0.61-0.63,0.61h-3.64C254.86,82.86,254.58,82.63,254.44,82.16z M240.64,27.51v22.09
		c0,0.23,0.09,0.35,0.28,0.35h6.3c2.15,0,3.87-1.03,5.18-3.1c1.31-2.07,1.96-4.82,1.96-8.25c0-3.43-0.65-6.2-1.96-8.29
		c-1.31-2.09-3.04-3.14-5.18-3.14h-6.3C240.74,27.16,240.64,27.27,240.64,27.51z"/>
	<path class="st4" d="M281.81,79.28c-2.15-2.85-3.22-6.58-3.22-11.17v-2.01c0-0.58,0.23-0.87,0.7-0.87h3.43
		c0.47,0,0.7,0.29,0.7,0.87v1.75c0,3.09,0.63,5.57,1.89,7.46c1.26,1.89,2.89,2.84,4.9,2.84c1.96,0,3.59-0.9,4.9-2.71
		c1.31-1.8,1.96-4.19,1.96-7.16c0-1.98-0.32-3.68-0.95-5.11c-0.63-1.43-1.45-2.68-2.45-3.75c-1-1.08-2.67-2.72-5.01-4.93
		c-2.33-2.15-4.18-4-5.53-5.54c-1.35-1.54-2.46-3.39-3.33-5.54c-0.86-2.15-1.29-4.68-1.29-7.6c0-4.54,1.05-8.13,3.15-10.78
		c2.1-2.65,4.83-3.97,8.19-3.97c3.55,0,6.38,1.44,8.51,4.32s3.19,6.71,3.19,11.48v2.18c0,0.58-0.23,0.87-0.7,0.87h-3.5
		c-0.47,0-0.7-0.29-0.7-0.87v-2.27c0-3.08-0.62-5.57-1.86-7.46c-1.24-1.89-2.88-2.84-4.94-2.84c-1.87,0-3.41,0.83-4.62,2.49
		c-1.21,1.66-1.82,4-1.82,7.03c0,1.8,0.27,3.39,0.8,4.76c0.54,1.37,1.34,2.66,2.42,3.88c1.07,1.22,2.66,2.82,4.76,4.8
		c2.8,2.56,4.89,4.64,6.27,6.24c1.38,1.6,2.44,3.35,3.19,5.24c0.75,1.89,1.12,4.18,1.12,6.85c0,4.77-1.1,8.6-3.29,11.48
		c-2.2,2.88-5.02,4.32-8.47,4.32C286.76,83.56,283.96,82.13,281.81,79.28z"/>
	<path class="st4" d="M311.95,79.36c-2.22-2.79-3.33-6.49-3.33-11.09V36.32c0-4.6,1.11-8.29,3.33-11.09
		c2.22-2.79,5.12-4.19,8.72-4.19c3.64,0,6.58,1.4,8.82,4.19c2.24,2.79,3.36,6.49,3.36,11.09v31.95c0,4.54-1.12,8.22-3.36,11.04
		c-2.24,2.82-5.18,4.23-8.82,4.23C317.07,83.56,314.17,82.16,311.95,79.36z M325.89,75.48c1.33-1.77,2-4.06,2-6.85V36.06
		c0-2.85-0.67-5.16-2-6.94c-1.33-1.77-3.07-2.66-5.22-2.66c-2.1,0-3.81,0.89-5.11,2.66c-1.31,1.78-1.96,4.09-1.96,6.94v32.56
		c0,2.79,0.65,5.08,1.96,6.85c1.31,1.78,3.01,2.66,5.11,2.66C322.82,78.14,324.56,77.26,325.89,75.48z"/>
	<path class="st4" d="M344.62,78.93c-2.19-3.08-3.29-7.16-3.29-12.22V22.62c0-0.58,0.23-0.87,0.7-0.87h3.57
		c0.47,0,0.7,0.29,0.7,0.87V67.4c0,3.2,0.64,5.79,1.92,7.77c1.28,1.98,2.98,2.97,5.08,2.97c2.15,0,3.87-0.99,5.18-2.97
		c1.31-1.98,1.96-4.57,1.96-7.77V22.62c0-0.58,0.23-0.87,0.7-0.87h3.57c0.47,0,0.7,0.29,0.7,0.87v44.09c0,5.06-1.11,9.14-3.33,12.22
		c-2.22,3.09-5.15,4.63-8.79,4.63C349.7,83.56,346.81,82.01,344.62,78.93z"/>
	<path class="st4" d="M394.4,21.74h3.5c0.47,0,0.7,0.29,0.7,0.87v59.37c0,0.58-0.23,0.87-0.7,0.87h-4.13c-0.38,0-0.63-0.23-0.77-0.7
		l-13.65-45.14c-0.05-0.17-0.12-0.25-0.21-0.22c-0.09,0.03-0.14,0.13-0.14,0.31l0.07,44.87c0,0.58-0.23,0.87-0.7,0.87h-3.57
		c-0.47,0-0.7-0.29-0.7-0.87V22.62c0-0.58,0.23-0.87,0.7-0.87h4.06c0.37,0,0.63,0.23,0.77,0.7l13.72,45.22
		c0.05,0.17,0.12,0.25,0.21,0.22c0.09-0.03,0.14-0.13,0.14-0.31V22.62C393.7,22.04,393.93,21.74,394.4,21.74z"/>
	<path class="st4" d="M408.61,81.98V22.62c0-0.58,0.23-0.87,0.7-0.87h10.78c3.59,0,6.46,1.47,8.61,4.41
		c2.15,2.94,3.22,6.88,3.22,11.83v28.64c0,4.95-1.07,8.89-3.22,11.83c-2.15,2.94-5.02,4.41-8.61,4.41h-10.78
		C408.85,82.86,408.61,82.57,408.61,81.98z M413.86,77.44l6.16-0.09c2.05,0,3.7-0.99,4.94-2.97c1.24-1.98,1.88-4.66,1.93-8.03V38.24
		c0-3.43-0.61-6.14-1.82-8.12c-1.21-1.98-2.89-2.97-5.04-2.97h-6.16c-0.19,0-0.28,0.12-0.28,0.35V77.1
		C413.58,77.33,413.68,77.44,413.86,77.44z"/>
	<path class="st4" d="M457.24,79.45c-2.17-2.73-3.26-6.4-3.26-11V36.06c0-4.54,1.09-8.18,3.26-10.91c2.17-2.74,5.05-4.1,8.65-4.1
		c3.64,0,6.55,1.35,8.72,4.06c2.17,2.71,3.26,6.36,3.26,10.96v1.48c0,0.58-0.23,0.87-0.7,0.87l-3.64,0.26c-0.47,0-0.7-0.29-0.7-0.87
		v-2.18c0-2.73-0.63-4.95-1.89-6.63c-1.26-1.69-2.94-2.53-5.04-2.53c-2.05,0-3.72,0.84-5.01,2.53c-1.29,1.69-1.93,3.9-1.93,6.63
		v33.35c0,2.74,0.64,4.95,1.93,6.63c1.28,1.69,2.95,2.53,5.01,2.53c2.1,0,3.78-0.84,5.04-2.53c1.26-1.69,1.89-3.9,1.89-6.63v-2.18
		c0-0.58,0.23-0.87,0.7-0.87l3.64,0.26c0.47,0,0.7,0.29,0.7,0.87v1.4c0,4.6-1.1,8.27-3.29,11c-2.2,2.74-5.09,4.1-8.68,4.1
		C462.29,83.56,459.41,82.19,457.24,79.45z"/>
	<path class="st4" d="M488.54,79.36c-2.22-2.79-3.33-6.49-3.33-11.09V36.32c0-4.6,1.11-8.29,3.33-11.09
		c2.22-2.79,5.12-4.19,8.72-4.19c3.64,0,6.58,1.4,8.82,4.19c2.24,2.79,3.36,6.49,3.36,11.09v31.95c0,4.54-1.12,8.22-3.36,11.04
		c-2.24,2.82-5.18,4.23-8.82,4.23C493.66,83.56,490.75,82.16,488.54,79.36z M502.47,75.48c1.33-1.77,2-4.06,2-6.85V36.06
		c0-2.85-0.67-5.16-2-6.94c-1.33-1.77-3.07-2.66-5.22-2.66c-2.1,0-3.81,0.89-5.11,2.66c-1.31,1.78-1.96,4.09-1.96,6.94v32.56
		c0,2.79,0.65,5.08,1.96,6.85c1.31,1.78,3.01,2.66,5.11,2.66C499.4,78.14,501.14,77.26,502.47,75.48z"/>
	<path class="st4" d="M538.63,21.74h3.5c0.47,0,0.7,0.29,0.7,0.87v59.37c0,0.58-0.23,0.87-0.7,0.87H538c-0.38,0-0.63-0.23-0.77-0.7
		l-13.65-45.14c-0.05-0.17-0.12-0.25-0.21-0.22c-0.09,0.03-0.14,0.13-0.14,0.31l0.07,44.87c0,0.58-0.23,0.87-0.7,0.87h-3.57
		c-0.47,0-0.7-0.29-0.7-0.87V22.62c0-0.58,0.23-0.87,0.7-0.87h4.06c0.37,0,0.63,0.23,0.77,0.7l13.72,45.22
		c0.05,0.17,0.12,0.25,0.21,0.22c0.09-0.03,0.14-0.13,0.14-0.31V22.62C537.93,22.04,538.17,21.74,538.63,21.74z"/>
	<path class="st4" d="M574.2,27.16h-16.1c-0.19,0-0.28,0.12-0.28,0.35v21.65c0,0.23,0.09,0.35,0.28,0.35h10.15
		c0.47,0,0.7,0.29,0.7,0.87v3.75c0,0.58-0.23,0.87-0.7,0.87H558.1c-0.19,0-0.28,0.12-0.28,0.35v26.63c0,0.58-0.23,0.87-0.7,0.87
		h-3.57c-0.47,0-0.7-0.29-0.7-0.87V22.62c0-0.58,0.23-0.87,0.7-0.87h20.66c0.47,0,0.7,0.29,0.7,0.87v3.67
		C574.9,26.87,574.67,27.16,574.2,27.16z"/>
	<path class="st4" d="M581.13,81.98V22.62c0-0.58,0.23-0.87,0.7-0.87h3.57c0.47,0,0.7,0.29,0.7,0.87v59.37
		c0,0.58-0.23,0.87-0.7,0.87h-3.57C581.37,82.86,581.13,82.57,581.13,81.98z"/>
	<path class="st4" d="M596.19,81.98V22.62c0-0.58,0.23-0.87,0.7-0.87h10.78c3.59,0,6.46,1.47,8.61,4.41
		c2.15,2.94,3.22,6.88,3.22,11.83v28.64c0,4.95-1.07,8.89-3.22,11.83c-2.15,2.94-5.02,4.41-8.61,4.41h-10.78
		C596.42,82.86,596.19,82.57,596.19,81.98z M601.44,77.44l6.16-0.09c2.05,0,3.7-0.99,4.94-2.97c1.24-1.98,1.88-4.66,1.93-8.03V38.24
		c0-3.43-0.61-6.14-1.82-8.12c-1.21-1.98-2.89-2.97-5.04-2.97h-6.16c-0.19,0-0.28,0.12-0.28,0.35V77.1
		C601.16,77.33,601.25,77.44,601.44,77.44z"/>
	<path class="st4" d="M649.75,27.16h-16.24c-0.19,0-0.28,0.12-0.28,0.35v21.65c0,0.23,0.09,0.35,0.28,0.35h10.22
		c0.47,0,0.7,0.29,0.7,0.87v3.75c0,0.58-0.23,0.87-0.7,0.87h-10.22c-0.19,0-0.28,0.12-0.28,0.35V77.1c0,0.23,0.09,0.35,0.28,0.35
		h16.24c0.47,0,0.7,0.29,0.7,0.87v3.67c0,0.58-0.23,0.87-0.7,0.87h-20.8c-0.47,0-0.7-0.29-0.7-0.87V22.62c0-0.58,0.23-0.87,0.7-0.87
		h20.8c0.47,0,0.7,0.29,0.7,0.87v3.67C650.45,26.87,650.22,27.16,649.75,27.16z"/>
	<path class="st4" d="M678.6,21.74h3.5c0.47,0,0.7,0.29,0.7,0.87v59.37c0,0.58-0.23,0.87-0.7,0.87h-4.13c-0.38,0-0.63-0.23-0.77-0.7
		l-13.65-45.14c-0.05-0.17-0.12-0.25-0.21-0.22c-0.09,0.03-0.14,0.13-0.14,0.31l0.07,44.87c0,0.58-0.23,0.87-0.7,0.87h-3.57
		c-0.47,0-0.7-0.29-0.7-0.87V22.62c0-0.58,0.23-0.87,0.7-0.87h4.06c0.37,0,0.63,0.23,0.77,0.7l13.72,45.22
		c0.05,0.17,0.12,0.25,0.21,0.22c0.09-0.03,0.14-0.13,0.14-0.31V22.62C677.9,22.04,678.13,21.74,678.6,21.74z"/>
	<path class="st4" d="M715.01,22.62v3.67c0,0.58-0.23,0.87-0.7,0.87h-9.24c-0.19,0-0.28,0.12-0.28,0.35v54.48
		c0,0.58-0.23,0.87-0.7,0.87h-3.57c-0.47,0-0.7-0.29-0.7-0.87V27.51c0-0.23-0.09-0.35-0.28-0.35h-8.68c-0.47,0-0.7-0.29-0.7-0.87
		v-3.67c0-0.58,0.23-0.87,0.7-0.87h23.46C714.77,21.74,715.01,22.04,715.01,22.62z"/>
</g>
</svg>
