<?xml version="1.0" encoding="utf-8"?>
<!-- Generator: Adobe Illustrator 23.0.0, SVG Export Plug-In . SVG Version: 6.00 Build 0)  -->
<svg version="1.1" id="레이어_1" xmlns="http://www.w3.org/2000/svg" xmlns:xlink="http://www.w3.org/1999/xlink" x="0px"
	 y="0px" width="700px" height="98.4px" viewBox="0 0 700 98.4" style="enable-background:new 0 0 700 98.4;" xml:space="preserve">
<style type="text/css">
	.st0{fill:#FFFFFF;stroke:#000000;stroke-miterlimit:10;}
	.st1{fill:none;stroke:#000000;stroke-miterlimit:10;}
	.st2{fill:#E62727;stroke:#E62727;stroke-miterlimit:10;}
</style>
<path class="st0" d="M-81,358.2c-26.5,0-50.9-6.1-70-16.4c-19.1,10.2-43.5,16.4-70,16.4"/>
<path class="st0" d="M-81,416c-26.5,0-50.9-6.1-70-16.4c-19.1,10.2-43.5,16.4-70,16.4"/>
<path class="st1" d="M-80.5,472.3c-19,0-37-3.2-53.5-9c-22-7.7-46-7.7-68,0c-16.5,5.8-34.5,9-53.5,9"/>
<path class="st2" d="M686.5,6.9c-22-7.7-46-7.7-68,0c-16.5,5.8-34.5,9-53.5,9s-37-3.2-53.5-9c-22-7.7-46-7.7-68,0
	c-16.5,5.8-34.5,9-53.5,9s-37-3.2-53.5-9c-22-7.7-46-7.7-68,0c-16.5,5.8-34.5,9-53.5,9s-37-3.2-53.5-9c-22-7.7-46-7.7-68,0
	c-16.5,5.8-34.5,9-53.5,9c-13.9,0-27.3-1.7-40-4.9v87.5h700V11C695.4,9.8,690.9,8.4,686.5,6.9z"/>
</svg>
