<?xml version="1.0" encoding="utf-8"?>
<!-- Generator: Adobe Illustrator 23.0.0, SVG Export Plug-In . SVG Version: 6.00 Build 0)  -->
<svg version="1.1" id="레이어_1" xmlns="http://www.w3.org/2000/svg" xmlns:xlink="http://www.w3.org/1999/xlink" x="0px"
	 y="0px" viewBox="0 0 211.76 254.86" style="enable-background:new 0 0 211.76 254.86;" xml:space="preserve">
<style type="text/css">
	.st0{fill:#5AB2FF;}
	.st1{fill:none;stroke:#000000;stroke-width:14;stroke-miterlimit:10;}
	.st2{fill:none;}
	.st3{fill:#225786;}
	.st4{fill:#EDF0E0;}
	.st5{fill:none;stroke:#000000;stroke-width:2;stroke-miterlimit:10;}
</style>
<path class="st3" d="M154.19,38.92c-9.91-0.24-19.46-1.63-28.81-3.7c-2.33-0.52-4.5,1.46-4.5,4.08v108.75
	c0,18.63-0.6,31.37-1.79,38.21c-1.19,6.85-4.41,12.35-9.64,16.5c-5.24,4.15-12.32,6.23-21.25,6.23c-8.21,0-15.15-1.88-20.8-5.64
	c-5.66-3.76-9.37-9.28-11.16-16.58c-1.79-7.29-2.68-20.2-2.68-38.72V20.93c0-2.3-1.69-4.17-3.77-4.17H3.77
	C1.69,16.75,0,18.62,0,20.93v127.13c0,30.53,2.56,51.82,7.68,63.88c5.12,12.06,13.75,21.44,25.89,28.11
	c12.14,6.68,28.81,10.02,49.99,10.02c22.61,0,40.38-4.55,53.3-13.63c12.91-9.09,20.95-19.97,24.1-32.66
	c3.15-12.68,4.73-31.93,4.73-57.74v-103c0-2.35-1.75-4.24-3.88-4.16C159.3,38.96,156.75,38.98,154.19,38.92z"/>
</svg>
