<?xml version="1.0" encoding="utf-8"?>
<!-- Generator: Adobe Illustrator 23.0.0, SVG Export Plug-In . SVG Version: 6.00 Build 0)  -->
<svg version="1.1" id="레이어_1" xmlns="http://www.w3.org/2000/svg" xmlns:xlink="http://www.w3.org/1999/xlink" x="0px"
	 y="0px" width="45px" height="45px" viewBox="0 0 45 45" style="enable-background:new 0 0 45 45;" xml:space="preserve">
<style type="text/css">
	.st0{fill:none;stroke:#1F4363;stroke-linecap:round;stroke-linejoin:round;stroke-miterlimit:10;}
	.st1{fill:none;stroke:#1F4363;stroke-miterlimit:10;}
	.st2{fill:#1F4363;stroke:#FFF9D0;stroke-width:2;stroke-miterlimit:10;}
	.st3{fill:#1F4363;stroke:#1F4363;stroke-width:0.8;stroke-miterlimit:10;}
	.st4{fill:none;stroke:#1F4363;stroke-width:1.5;stroke-linejoin:round;stroke-miterlimit:10;}
</style>
<path class="st0" d="M32.3,28c2.9,0.4,5.7,1.6,8.6,1.7"/>
<path class="st0" d="M16.4,28.7c1.8,0.5,3.7,1.2,5.6,1.1c1.5-0.1,2.9-0.7,4.2-1.1"/>
<circle class="st1" cx="22.5" cy="22.5" r="19.8"/>
<ellipse transform="matrix(0.896 -0.444 0.444 0.896 -11.1915 8.9843)" cx="13.6" cy="28.4" rx="2" ry="1.5"/>
<ellipse transform="matrix(0.2323 -0.9726 0.9726 0.2323 -4.7904 49.2955)" class="st2" cx="28.8" cy="27.7" rx="2.7" ry="3.3"/>
<path class="st3" d="M21.6,15.9c0.9,0.4,2,0.4,2.8-0.1c0.6-0.4,1-0.9,1.5-1.4s1-1,1.6-1.1c-0.2-0.5-0.8-0.7-1.3-0.6
	c-0.5,0.1-1,0.4-1.5,0.6c-1.1,0.4-2.3,0.1-3.1-0.7l0,0v6.3"/>
<path class="st0" d="M4.2,29.9c0.8,0.1,1.6,0,2.3-0.3c1.3-0.4,2.3-1.2,3.6-1.5c0.2,0,0.3-0.1,0.5-0.1"/>
<path class="st0" d="M8.2,35.8c0.6,0,1.1-0.1,1.6-0.3c1.1-0.4,1.9-1.2,3-1.5c1.6-0.5,3.4-0.1,5.1,0.5s3.3,1.2,5,1.1
	c2.1-0.2,3.8-1.4,5.8-1.8c2.9-0.5,5.7,0.9,8.6,1.5"/>
<ellipse transform="matrix(0.9298 -0.3681 0.3681 0.9298 -9.5975 6.91)" class="st2" cx="13.3" cy="28.6" rx="3.3" ry="2.7"/>
<path class="st1" d="M30.7,28.1c1.3-2.6,2.2-5,3.2-7.7c-3.6-1-7.3-1.5-11-1.6c-3.7,0-7.4,0.6-11,1.6c1,2.7,1.9,4.8,3.1,7.4"/>
<path class="st4" d="M30.7,21.6c0.9,0.1,1.5,0.2,2.4,0.6"/>
</svg>
