<?xml version="1.0" encoding="utf-8"?>
<!-- Generator: Adobe Illustrator 23.0.0, SVG Export Plug-In . SVG Version: 6.00 Build 0)  -->
<svg version="1.1" id="레이어_1" xmlns="http://www.w3.org/2000/svg" xmlns:xlink="http://www.w3.org/1999/xlink" x="0px"
	 y="0px" width="44.9px" height="52.75px" viewBox="0 0 44.9 52.75" style="enable-background:new 0 0 44.9 52.75;"
	 xml:space="preserve">
<g>
	<path d="M22.45,52.75c-4.41,0-8.3-1.08-11.67-3.24c-3.37-2.16-6.01-5.22-7.92-9.19C0.95,36.35,0,31.63,0,26.17
		c0-5.51,0.95-10.21,2.86-14.12c1.9-3.9,4.54-6.89,7.92-8.95C14.15,1.03,18.04,0,22.45,0c4.45,0,8.35,1.04,11.71,3.13
		c3.35,2.09,5.98,5.07,7.88,8.95c1.91,3.88,2.86,8.57,2.86,14.08c0,5.46-0.95,10.18-2.86,14.15c-1.91,3.97-4.53,7.04-7.88,9.19
		C30.8,51.67,26.9,52.75,22.45,52.75z M22.45,44.83c2.66,0,4.98-0.77,6.96-2.31c1.97-1.54,3.5-3.71,4.58-6.51
		c1.08-2.8,1.62-6.08,1.62-9.85c0-3.81-0.54-7.08-1.62-9.81c-1.08-2.73-2.61-4.83-4.58-6.3c-1.97-1.47-4.29-2.2-6.96-2.2
		c-2.66,0-4.98,0.73-6.96,2.2c-1.97,1.47-3.49,3.57-4.54,6.3c-1.06,2.73-1.58,6-1.58,9.81c0,3.76,0.53,7.05,1.58,9.85
		c1.06,2.8,2.57,4.97,4.54,6.51C17.47,44.06,19.79,44.83,22.45,44.83z"/>
</g>
</svg>
