<?xml version="1.0" encoding="utf-8"?>
<!-- Generator: Adobe Illustrator 23.0.0, SVG Export Plug-In . SVG Version: 6.00 Build 0)  -->
<svg version="1.1" id="레이어_1" xmlns="http://www.w3.org/2000/svg" xmlns:xlink="http://www.w3.org/1999/xlink" x="0px"
	 y="0px" width="45.04px" height="52.75px" viewBox="0 0 45.04 52.75" style="enable-background:new 0 0 45.04 52.75;"
	 xml:space="preserve">
<g>
	<path d="M0,51.78V0.9h10.26l8.95,24.86c0.55,1.56,1.1,3.19,1.65,4.89c0.55,1.7,1.08,3.37,1.58,5.03h0.34
		c0.55-1.65,1.09-3.33,1.62-5.03c0.53-1.7,1.04-3.33,1.55-4.89L34.77,0.9h10.26v50.89H36.7V28.58c0-1.56,0.07-3.29,0.21-5.2
		c0.14-1.9,0.3-3.82,0.48-5.75c0.18-1.93,0.34-3.67,0.48-5.23H37.6l-4.13,11.84l-8.33,22.79h-5.44l-8.33-22.79L7.3,12.4H7.02
		c0.18,1.56,0.35,3.31,0.52,5.23c0.16,1.93,0.31,3.85,0.45,5.75c0.14,1.91,0.21,3.64,0.21,5.2v23.21H0z"/>
</g>
</svg>
