<?xml version="1.0" encoding="utf-8"?>
<!-- Generator: Adobe Illustrator 23.0.0, SVG Export Plug-In . SVG Version: 6.00 Build 0)  -->
<svg version="1.1" id="레이어_1" xmlns="http://www.w3.org/2000/svg" xmlns:xlink="http://www.w3.org/1999/xlink" x="0px"
	 y="0px" width="38.56px" height="52.75px" viewBox="0 0 38.56 52.75" style="enable-background:new 0 0 38.56 52.75;"
	 xml:space="preserve">
<g>
	<path d="M19.28,52.75c-2.94,0-5.6-0.44-7.99-1.31c-2.39-0.87-4.42-2.23-6.09-4.06c-1.68-1.84-2.96-4.25-3.86-7.23
		C0.45,37.16,0,33.6,0,29.47V0.9h9.02v29.27c0,3.63,0.44,6.52,1.31,8.68c0.87,2.16,2.08,3.7,3.62,4.61
		c1.54,0.92,3.32,1.38,5.34,1.38c2.11,0,3.95-0.46,5.51-1.38c1.56-0.92,2.79-2.46,3.68-4.61c0.9-2.16,1.34-5.05,1.34-8.68V0.9h8.75
		v28.58c0,4.13-0.45,7.69-1.34,10.67c-0.9,2.98-2.18,5.4-3.86,7.23c-1.68,1.84-3.7,3.19-6.06,4.06
		C24.94,52.31,22.26,52.75,19.28,52.75z"/>
</g>
</svg>
