<?xml version="1.0" encoding="utf-8"?>
<!-- Generator: Adobe Illustrator 23.0.0, SVG Export Plug-In . SVG Version: 6.00 Build 0)  -->
<svg version="1.1" id="레이어_1" xmlns="http://www.w3.org/2000/svg" xmlns:xlink="http://www.w3.org/1999/xlink" x="0px"
	 y="0px" width="38.36px" height="52.75px" viewBox="0 0 38.36 52.75" style="enable-background:new 0 0 38.36 52.75;"
	 xml:space="preserve">
<g>
	<path d="M0,51.78V0.9h13.57c5.23,0,9.7,0.94,13.39,2.82c3.69,1.88,6.52,4.68,8.47,8.4c1.95,3.72,2.93,8.4,2.93,14.05
		c0,5.6-0.98,10.31-2.93,14.12c-1.95,3.81-4.74,6.68-8.37,8.61c-3.63,1.93-7.97,2.89-13.02,2.89H0z M9.09,44.42h3.86
		c3.4,0,6.3-0.65,8.71-1.96c2.41-1.31,4.25-3.32,5.51-6.03c1.26-2.71,1.89-6.13,1.89-10.26c0-4.22-0.63-7.64-1.89-10.26
		s-3.1-4.54-5.51-5.78s-5.31-1.86-8.71-1.86H9.09V44.42z"/>
</g>
</svg>
