<?xml version="1.0" encoding="utf-8"?>
<!-- Generator: Adobe Illustrator 23.0.0, SVG Export Plug-In . SVG Version: 6.00 Build 0)  -->
<svg version="1.1" id="레이어_1" xmlns="http://www.w3.org/2000/svg" xmlns:xlink="http://www.w3.org/1999/xlink" x="0px"
	 y="0px" viewBox="0 0 171.03 254.86" style="enable-background:new 0 0 171.03 254.86;" xml:space="preserve">
<style type="text/css">
	.st0{fill:#5AB2FF;}
	.st1{fill:none;stroke:#000000;stroke-width:14;stroke-miterlimit:10;}
	.st2{fill:none;}
	.st3{fill:#225786;}
	.st4{fill:#EDF0E0;}
	.st5{fill:none;stroke:#000000;stroke-width:2;stroke-miterlimit:10;}
</style>
<path class="st3" d="M0,47.03l0,11.29c0,1.62,1.31,2.93,2.93,2.93h42.7c1.62,0,2.93,1.31,2.93,2.93v174.86
	c0,1.49,1.11,2.74,2.59,2.91l47.7,5.59c1.74,0.2,3.28-1.16,3.28-2.91V64.19c0-1.62,1.31-2.93,2.93-2.93h43.95
	c1.62,0,2.93-1.31,2.93-2.93V21.1c0-1.62-1.31-2.93-2.93-2.93l-17.63,0c-0.26,0-0.53,0.03-0.78,0.1
	C92.38,28.6,55.12,44.83,14.29,44.57c-3.74-0.02-7.46-0.19-11.15-0.47C1.44,43.97,0,45.33,0,47.03z"/>
</svg>
