<?xml version="1.0" encoding="utf-8"?>
<!-- Generator: Adobe Illustrator 23.0.0, SVG Export Plug-In . SVG Version: 6.00 Build 0)  -->
<svg version="1.1" id="레이어_1" xmlns="http://www.w3.org/2000/svg" xmlns:xlink="http://www.w3.org/1999/xlink" x="0px"
	 y="0px" viewBox="0 0 290.07 206.68" style="enable-background:new 0 0 290.07 206.68;" xml:space="preserve">
<style type="text/css">
	.st0{fill:#5AB2FF;}
	.st1{fill:none;stroke:#000000;stroke-width:14;stroke-miterlimit:10;}
	.st2{fill:none;}
	.st3{fill:#225786;}
	.st4{fill:#EDF0E0;}
	.st5{fill:none;stroke:#000000;stroke-width:2;stroke-miterlimit:10;}
</style>
<path class="st4" d="M73.37,168V5.37H0V168c0,14.6,0.52,27.49,1.57,38.67h73.7C74.01,197.37,73.37,184.5,73.37,168z"/>
<path class="st4" d="M226.97,165.5V5.37h-61.39V168c0,16.74-0.43,29.62-1.29,38.67h61.11C226.44,194.91,226.97,181.19,226.97,165.5z
	"/>
<path class="st4" d="M349.74,51.48l38.39,146.69c47.3-6.47,82.25-15.93,110.36-23.82l35.18-122.87l0,113.32
	c37.27-9.67,41.44-12.26,68.73-19.61c0,0,0,0,0,0l0-139.99H497.96l-53.07,175.77L397.68,5.19H290.07v200.35
	c21.61-0.44,41.43-1.54,59.68-3.11V51.48z"/>
</svg>
