<?xml version="1.0" encoding="utf-8"?>
<!-- Generator: Adobe Illustrator 23.0.0, SVG Export Plug-In . SVG Version: 6.00 Build 0)  -->
<svg version="1.1" id="레이어_1" xmlns="http://www.w3.org/2000/svg" xmlns:xlink="http://www.w3.org/1999/xlink" x="0px"
	 y="0px" viewBox="0 0 266.1 206.68" style="enable-background:new 0 0 266.1 206.68;" xml:space="preserve">
<style type="text/css">
	.st0{fill:#5AB2FF;}
	.st1{fill:none;stroke:#000000;stroke-width:14;stroke-miterlimit:10;}
	.st2{fill:none;}
	.st3{fill:#225786;}
	.st4{fill:#EDF0E0;}
	.st5{fill:none;stroke:#000000;stroke-width:2;stroke-miterlimit:10;}
</style>
<path class="st4" d="M126.85,133.17c31.56,6.04,54.63,13.34,75.52,20.78c-6.38-7.21-13.94-13.22-22.73-17.98
	c-12.31-6.67-29.23-13.41-50.75-20.23c-23.64-7.78-39.18-14.07-46.59-18.87c-7.42-4.8-11.13-11.22-11.13-19.29
	c0-6.95,3.14-13.03,9.42-18.25c6.27-5.21,14.8-7.82,25.56-7.82c22.99,0,38.8,11.75,47.45,35.24l60.65-19.81
	C199.9,22.75,163.7,0.64,105.66,0.64c-31.79,0-57.35,8.17-76.67,24.5C9.66,41.48,0,62.43,0,88.01c0,15.01,4.07,28.39,12.23,40.14
	l1.22,1.76C50.27,124.09,83.28,124.83,126.85,133.17z"/>
</svg>
