<?xml version="1.0" encoding="utf-8"?>
<!-- Generator: Adobe Illustrator 23.0.0, SVG Export Plug-In . SVG Version: 6.00 Build 0)  -->
<svg version="1.1" id="레이어_1" xmlns="http://www.w3.org/2000/svg" xmlns:xlink="http://www.w3.org/1999/xlink" x="0px"
	 y="0px" viewBox="0 0 574.27 104.94" style="enable-background:new 0 0 574.27 104.94;" xml:space="preserve">
<style type="text/css">
	.st0{fill:#5AB2FF;}
	.st1{fill:none;stroke:#000000;stroke-width:14;stroke-miterlimit:10;}
	.st2{fill:none;}
	.st3{fill:#225786;}
	.st4{fill:#EDF0E0;}
	.st5{fill:none;stroke:#000000;stroke-width:2;stroke-miterlimit:10;}
</style>
<path class="st4" d="M436.2,34.01c-7.18,5.14-19.55,6.32-31.77,6.32c-11.25,0-26.32-2.18-34.06-6.84c-1.55-0.93-8.08-5.64-9.42-6.75
	l0,0l-67.2,0c-1.89,0-3.27,1.81-2.74,3.63c1.1,3.8,2.34,7.17,3.71,10.09c7.01,14.94,18.83,26.55,35.46,34.82
	c16.63,8.27,39.65,8.76,68.67,8.76c30.98,0,55.12-1.99,72.82-13.25c17.69-11.26,28.7-24.74,33.02-40.45v0
	c0.5-1.81-0.87-3.6-2.75-3.6h-55.67c0,0,0,0,0,0C445.34,27.55,437.24,33.26,436.2,34.01z"/>
</svg>
