<?xml version="1.0" encoding="utf-8"?>
<!-- Generator: Adobe Illustrator 23.0.0, SVG Export Plug-In . SVG Version: 6.00 Build 0)  -->
<svg version="1.1" id="레이어_1" xmlns="http://www.w3.org/2000/svg" xmlns:xlink="http://www.w3.org/1999/xlink" x="0px"
	 y="0px" viewBox="0 0 850.84 70" style="enable-background:new 0 0 850.84 70;" xml:space="preserve">
<style type="text/css">
	.st0{fill:#FFFFFF;stroke:#000000;stroke-miterlimit:10;}
	.st1{fill:none;stroke:#000000;stroke-miterlimit:10;}
	.st2{fill:none;stroke:#000000;stroke-width:0.82;stroke-miterlimit:10;}
	.st3{fill:none;stroke:#000000;stroke-width:0.64;stroke-miterlimit:10;}
	.st4{fill:none;stroke:#000000;stroke-width:0.46;stroke-miterlimit:10;}
	.st5{fill:none;stroke:#000000;stroke-width:0.28;stroke-miterlimit:10;}
	.st6{fill:none;stroke:#000000;stroke-width:0.1;stroke-miterlimit:10;}
</style>
<path class="st0" d="M-12.5,170.5c3.82,2.75,14.57,10,30,10"/>
<path class="st0" d="M47.5,170.5c-3.82,2.75-14.57,10-30,10"/>
<path class="st0" d="M47.5,170.5c3.82-2.75,14.57-10,30-10"/>
<path class="st0" d="M107.5,170.5c-3.82-2.75-14.57-10-30-10"/>
<path class="st0" d="M107.5,170.5c3.82,2.75,14.57,10,30,10"/>
<path class="st0" d="M167.5,170.5c-3.82,2.75-14.57,10-30,10"/>
<path class="st0" d="M167.5,170.5c3.82-2.75,14.57-10,30-10"/>
<path class="st0" d="M227.5,170.5c-3.82-2.75-14.57-10-30-10"/>
<path class="st0" d="M227.5,170.5c3.82,2.75,14.57,10,30,10"/>
<path class="st0" d="M-89.5-93.83c3.82,1.37,14.57,5,30,5"/>
<path class="st0" d="M-29.5-93.83c-3.82,1.37-14.57,5-30,5"/>
<path class="st0" d="M-29.5-93.83c3.82-1.37,14.57-5,30-5"/>
<path class="st0" d="M30.5-93.83c-3.82-1.37-14.57-5-30-5"/>
<path class="st0" d="M30.5-93.83c3.82,1.37,14.57,5,30,5"/>
<path class="st0" d="M90.5-93.83c-3.82,1.37-14.57,5-30,5"/>
<path class="st0" d="M90.5-93.83c3.82-1.37,14.57-5,30-5"/>
<path class="st0" d="M150.5-93.83c-3.82-1.37-14.57-5-30-5"/>
<path class="st0" d="M150.5-93.83c3.82,1.37,14.57,5,30,5"/>
<path class="st0" d="M210.5-93.83c-3.82,1.37-14.57,5-30,5"/>
<path class="st0" d="M210.5-93.83c3.82-1.37,14.57-5,30-5"/>
<path class="st0" d="M270.5-93.83c-3.82-1.37-14.57-5-30-5"/>
<path class="st0" d="M270.5-93.83c3.82,1.37,14.57,5,30,5"/>
<path class="st0" d="M330.5-93.83c-3.82,1.37-14.57,5-30,5"/>
<path class="st0" d="M330.5-93.83c3.82-1.37,14.57-5,30-5"/>
<path class="st0" d="M390.5-93.83c-3.82-1.37-14.57-5-30-5"/>
<path class="st0" d="M390.5-93.83c3.82,1.37,14.57,5,30,5"/>
<path class="st0" d="M450.5-93.83c-3.82,1.37-14.57,5-30,5"/>
<path class="st0" d="M450.5-93.83c3.82-1.37,14.57-5,30-5"/>
<path class="st0" d="M510.5-93.83c-3.82-1.37-14.57-5-30-5"/>
<path class="st0" d="M510.5-93.83c3.82,1.37,14.57,5,30,5"/>
<path class="st0" d="M570.5-93.83c-3.82,1.37-14.57,5-30,5"/>
<path class="st0" d="M570.5-93.83c3.82-1.37,14.57-5,30-5"/>
<path class="st0" d="M630.5-93.83c-3.82-1.37-14.57-5-30-5"/>
<path class="st0" d="M630.5-93.83c3.82,1.37,14.57,5,30,5"/>
<path class="st0" d="M690.5-93.83c-3.82,1.37-14.57,5-30,5"/>
<path class="st0" d="M690.5-93.83c3.82-1.37,14.57-5,30-5"/>
<g>
	<path class="st1" d="M830.43,44.76c-15.43,0-26.18,3.63-30,5c-3.82,1.37-14.57,5-30,5s-26.18-3.63-30-5c-3.82-1.37-14.57-5-30-5
		s-26.18,3.63-30,5c-3.82,1.37-14.57,5-30,5s-26.18-3.63-30-5c-3.82-1.37-14.57-5-30-5s-26.18,3.63-30,5c-3.82,1.37-14.57,5-30,5
		s-26.18-3.63-30-5c-3.82-1.37-14.57-5-30-5s-26.18,3.63-30,5c-3.82,1.37-14.57,5-30,5s-26.18-3.63-30-5c-3.82-1.37-14.57-5-30-5
		s-26.18,3.63-30,5c-3.82,1.37-14.57,5-30,5s-26.18-3.63-30-5c-3.82-1.37-14.57-5-30-5s-26.18,3.63-30,5c-3.82,1.37-14.57,5-30,5
		s-26.18-3.63-30-5c-3.82-1.37-14.57-5-30-5s-26.18,3.63-30,5c-3.82,1.37-14.57,5-30,5s-26.18-3.63-30-5"/>
	<path class="st2" d="M830.43,39.13c-13.17,0.07-22.37,3.03-25.76,4.17c-3.84,1.19-14.65,4.34-30.16,4.34
		c-15.51,0-26.32-3.15-30.16-4.34c-3.84-1.19-14.65-4.34-30.16-4.34c-15.51,0-26.32,3.15-30.16,4.34
		c-3.84,1.19-14.65,4.34-30.16,4.34c-15.51,0-26.32-3.15-30.16-4.34c-3.84-1.19-14.65-4.34-30.16-4.34
		c-15.51,0-26.32,3.15-30.16,4.34c-3.84,1.19-14.65,4.34-30.16,4.34c-15.51,0-26.32-3.15-30.16-4.34
		c-3.84-1.19-14.65-4.34-30.16-4.34s-26.32,3.15-30.16,4.34c-3.84,1.19-14.65,4.34-30.16,4.34s-26.32-3.15-30.16-4.34
		c-3.84-1.19-14.65-4.34-30.16-4.34s-26.32,3.15-30.16,4.34c-3.84,1.19-14.65,4.34-30.16,4.34s-26.32-3.15-30.16-4.34
		c-3.84-1.19-14.65-4.34-30.16-4.34s-26.32,3.15-30.16,4.34c-3.84,1.19-14.65,4.34-30.16,4.34S145,44.49,141.16,43.3
		c-3.84-1.19-14.65-4.34-30.16-4.34s-26.32,3.15-30.16,4.34c-3.84,1.19-14.65,4.34-30.16,4.34s-26.4-3.15-30.24-4.34"/>
	<path class="st3" d="M830.43,33.49c-10.91,0.13-18.56,2.44-21.53,3.35c-3.87,1.01-14.73,3.68-30.33,3.68
		c-15.6,0-26.46-2.67-30.33-3.68c-3.87-1.01-14.73-3.68-30.33-3.68c-15.6,0-26.46,2.67-30.33,3.68c-3.87,1.01-14.73,3.68-30.33,3.68
		c-15.6,0-26.46-2.67-30.33-3.68c-3.87-1.01-14.73-3.68-30.33-3.68c-15.6,0-26.46,2.67-30.33,3.68c-3.87,1.01-14.73,3.68-30.33,3.68
		s-26.46-2.67-30.33-3.68c-3.87-1.01-14.73-3.68-30.33-3.68c-15.6,0-26.46,2.67-30.33,3.68c-3.87,1.01-14.73,3.68-30.33,3.68
		c-15.6,0-26.46-2.67-30.33-3.68c-3.87-1.01-14.73-3.68-30.33-3.68c-15.6,0-26.46,2.67-30.33,3.68c-3.87,1.01-14.73,3.68-30.33,3.68
		c-15.6,0-26.46-2.67-30.33-3.68c-3.87-1.01-14.73-3.68-30.33-3.68s-26.46,2.67-30.33,3.68c-3.87,1.01-14.73,3.68-30.33,3.68
		s-26.46-2.67-30.33-3.68c-3.87-1.01-14.73-3.68-30.33-3.68s-26.46,2.67-30.33,3.68c-3.87,1.01-14.73,3.68-30.33,3.68
		s-26.35-2.66-30.22-3.68"/>
	<path class="st4" d="M830.43,27.86c-8.65,0.2-14.75,1.85-17.29,2.52c-3.89,0.83-14.81,3.02-30.49,3.02s-26.6-2.19-30.49-3.02
		c-3.89-0.83-14.81-3.02-30.49-3.02s-26.6,2.19-30.49,3.02c-3.89,0.83-14.81,3.02-30.49,3.02s-26.6-2.19-30.49-3.02
		c-3.89-0.83-14.81-3.02-30.49-3.02s-26.6,2.19-30.49,3.02c-3.89,0.83-14.81,3.02-30.49,3.02s-26.6-2.19-30.49-3.02
		c-3.89-0.83-14.81-3.02-30.49-3.02s-26.6,2.19-30.49,3.02c-3.89,0.83-14.81,3.02-30.49,3.02s-26.6-2.19-30.49-3.02
		c-3.89-0.83-14.81-3.02-30.49-3.02s-26.6,2.19-30.49,3.02c-3.89,0.83-14.81,3.02-30.49,3.02s-26.6-2.19-30.49-3.02
		c-3.89-0.83-14.81-3.02-30.49-3.02s-26.6,2.19-30.49,3.02c-3.89,0.83-14.81,3.02-30.49,3.02s-26.6-2.19-30.49-3.02
		c-3.89-0.83-14.81-3.02-30.49-3.02s-26.6,2.19-30.49,3.02C77.5,31.21,66.58,33.4,50.9,33.4s-26.6-2.19-30.49-3.02"/>
	<path class="st5" d="M830.43,22.23c-6.39,0.26-10.94,1.26-13.05,1.7c-3.91,0.65-14.89,2.37-30.65,2.37s-26.74-1.72-30.65-2.37
		c-3.91-0.65-14.89-2.37-30.65-2.37s-26.74,1.72-30.65,2.37c-3.91,0.65-14.89,2.37-30.65,2.37s-26.74-1.72-30.65-2.37
		c-3.91-0.65-14.89-2.37-30.65-2.37s-26.74,1.72-30.65,2.37c-3.91,0.65-14.89,2.37-30.65,2.37s-26.74-1.72-30.65-2.37
		s-14.89-2.37-30.65-2.37s-26.74,1.72-30.65,2.37s-14.89,2.37-30.65,2.37c-15.76,0-26.74-1.72-30.65-2.37s-14.89-2.37-30.65-2.37
		s-26.74,1.72-30.65,2.37s-14.89,2.37-30.65,2.37s-26.74-1.72-30.65-2.37s-14.89-2.37-30.65-2.37s-26.74,1.72-30.65,2.37
		c-3.91,0.65-14.89,2.37-30.65,2.37s-26.74-1.72-30.65-2.37c-3.91-0.65-14.89-2.37-30.65-2.37s-26.74,1.72-30.65,2.37
		S66.89,26.3,51.13,26.3s-26.79-1.72-30.7-2.37"/>
	<path class="st6" d="M830.43,16.6c-4.13,0.33-7.13,0.67-8.81,0.87c-3.93,0.47-14.97,1.71-30.81,1.71s-26.89-1.24-30.81-1.71
		c-3.93-0.47-14.97-1.71-30.81-1.71S702.3,17,698.38,17.47c-3.93,0.47-14.97,1.71-30.81,1.71s-26.89-1.24-30.81-1.71
		c-3.93-0.47-14.97-1.71-30.81-1.71s-26.89,1.24-30.81,1.71c-3.93,0.47-14.97,1.71-30.81,1.71s-26.89-1.24-30.81-1.71
		c-3.93-0.47-14.97-1.71-30.81-1.71S455.82,17,451.9,17.47c-3.93,0.47-14.97,1.71-30.81,1.71s-26.89-1.24-30.81-1.71
		c-3.93-0.47-14.97-1.71-30.81-1.71s-26.89,1.24-30.81,1.71c-3.93,0.47-14.97,1.71-30.81,1.71s-26.89-1.24-30.81-1.71
		c-3.93-0.47-14.97-1.71-30.81-1.71s-26.89,1.24-30.81,1.71c-3.93,0.47-14.97,1.71-30.81,1.71s-26.89-1.24-30.81-1.71
		c-3.93-0.47-14.97-1.71-30.81-1.71S86.1,17,82.18,17.47c-3.93,0.47-14.97,1.71-30.81,1.71s-27.01-1.24-30.94-1.71"/>
</g>
</svg>
